<svg height="511pt" viewBox="-13 0 511 511.99986" width="511pt" xmlns="http://www.w3.org/2000/svg"><path d="m232.101562 168.351562c0 4.195313 3.398438 7.59375 7.59375 7.59375h25.742188c9.550781 26.960938 33.550781 46.144532 61.589844 46.144532h11.902344c4.191406 0 7.589843-3.402344 7.589843-7.59375 0-4.195313-3.398437-7.59375-7.589843-7.59375h-11.902344c-19.691406 0-36.792969-12.597656-45.230469-30.957032h40.894531c4.195313 0 7.59375-3.398437 7.59375-7.59375 0-4.191406-3.398437-7.589843-7.59375-7.589843h-45.582031c-.90625-5.292969-1.074219-10.011719-.773437-14.777344h46.355468c4.195313 0 7.59375-3.398437 7.59375-7.589844 0-4.195312-3.398437-7.59375-7.59375-7.59375h-43.492187c7.070312-21.898437 25.839843-37.597656 47.828125-37.597656h11.902344c4.191406 0 7.589843-3.398437 7.589843-7.59375 0-4.191406-3.398437-7.59375-7.589843-7.59375h-11.902344c-30.292969 0-55.867188 22.386719-63.605469 52.785156h-23.726563c-4.195312 0-7.59375 3.398438-7.59375 7.59375 0 4.191407 3.398438 7.589844 7.59375 7.589844h21.425782c-.25 4.867187-.082032 9.671875.621094 14.777344h-22.046876c-4.195312 0-7.59375 3.398437-7.59375 7.589843zm0 0"/><path d="m445 443.886719h-2.074219c7.625-11.398438 7.644531-26.300781-.011719-37.773438h8.292969c19.058594 0 35.054688-15.59375 34.730469-34.648437-.316406-18.507813-15.46875-33.464844-34.050781-33.464844h-8.972657c15.054688-22.566406-1.171874-52.957031-28.324218-52.957031h-38.359375c62.371093-30.332031 95.894531-99.246094 80.992187-167.289063-.902344-4.101562-4.953125-6.691406-9.042968-5.792968-4.097657.890624-6.691407 4.941406-5.789063 9.042968 9.351563 42.734375-2.300781 87.539063-32.40625 120.332032-56.917969 62-155.941406 57.097656-206.570313-9.160157-.011718 0-.011718-.011719-.011718-.011719-8.753906-11.441406-15.609375-24.195312-20.328125-37.742187-.007813-.011719-.019531-.019531-.007813-.03125-6.15625-17.636719-8.40625-35.949219-7.25-52.925781-.011718-.011719-.011718-.019532 0-.03125.152344-2.390625 1.304688-14.667969 1.820313-15.1875 18.628906-104.921875 146.171875-147.292969 224.195312-75.65625 13.386719 12.28125 23.972657 26.820312 31.464844 43.191406 1.742187 3.816406 6.246094 5.484375 10.066406 3.746094 3.804688-1.742188 5.484375-6.246094 3.742188-10.066406-50.363281-110.015626-204.046875-117.933594-265.699219-14.140626h-85.722656c-18.769532 0-34.054688 15.277344-34.054688 34.054688 0 18.78125 15.285156 34.058594 34.054688 34.058594h.367187c-3.617187 5.417968-5.730469 11.914062-5.730469 18.902344 0 6.984374 2.113282 13.484374 5.730469 18.898437h-11.644531c-4.191406 0-7.59375 3.402344-7.59375 7.59375 0 4.195313 3.402344 7.59375 7.59375 7.59375h82.683594c4.128906 13.324219 10.101562 26.039063 17.738281 37.742187h-140.921875c-10.21875 0-18.933594-7.933593-19.320312-18.148437-.402344-10.734375 8.210937-19.59375 18.859374-19.59375h5.863282c4.191406 0 7.589844-3.398437 7.589844-7.59375 0-4.191406-3.398438-7.59375-7.589844-7.59375h-5.1875c-18.632813 0-34.324219 14.683594-34.722656 33.316406-.273438 12.730469 6.484374 23.9375 16.644531 30.011719-6.183594 6.382812-9.890625 15.15625-9.578125 24.789062.59375 18.472657 16.21875 32.925782 34.699218 32.925782h12.347657c-14.953125 22.515625 1.234375 52.878906 28.375 52.878906h18.589843c-7.582031 11.367188-7.703124 26.261719 0 37.800781h-40.457031c-27.191406 0-43.359375 30.445313-28.335937 52.929688h-6.449219c-19.054687 0-35.054687 15.59375-34.730469 34.648437.316406 18.507813 15.46875 33.464844 34.054688 33.464844h411.121094c18.582031 0 33.734374-14.957031 34.050781-33.464844.328125-19.054687-15.671875-34.648437-34.730469-34.648437zm-320.625-264.679688c-10.40625 0-18.871094-8.464843-18.871094-18.871093 0-10.410157 8.464844-18.871094 18.871094-18.871094h36.214844c-.71875 12.59375.160156 25.246094 2.632812 37.742187zm37.855469-52.960937h-66.546875c-10.394532 0-18.871094-8.460938-18.871094-18.871094 0-10.394531 8.476562-18.871094 18.871094-18.871094h77.824218c-5.394531 12-9.191406 24.671875-11.277343 37.742188zm289.65625 226.941406c10.40625 0 18.871093 8.460938 18.871093 18.871094 0 10.394531-8.464843 18.867187-18.871093 18.867187h-203.308594c-10.410156 0-18.871094-8.472656-18.871094-18.867187 0-10.410156 8.460938-18.871094 18.871094-18.871094zm-231.65625 37.738281h-81.425781c-10.410157 0-18.871094-8.472656-18.871094-18.867187 0-10.410156 8.460937-18.871094 18.871094-18.871094h81.425781c-7.613281 11.417969-7.613281 26.320312 0 37.738281zm-8.949219 15.21875h203.308594c10.40625 0 18.871094 8.464844 18.871094 18.871094 0 10.398437-8.464844 18.871094-18.871094 18.871094h-203.308594c-10.410156 0-18.871094-8.472657-18.871094-18.871094 0-10.40625 8.460938-18.871094 18.871094-18.871094zm203.308594-105.917969c10.40625 0 18.871094 8.464844 18.871094 18.871094s-8.464844 18.871094-18.871094 18.871094h-203.308594c-10.410156 0-18.871094-8.464844-18.871094-18.871094 0-10.074218 7.925782-18.292968 17.867188-18.820312 85.222656 0 18.355468-.050782 204.3125-.050782zm-364.089844-15.132812c-10.40625 0-18.867188-8.464844-18.867188-18.863281 0-10.40625 8.460938-18.871094 18.867188-18.871094h145.664062c12.867188 15.167969 29.308594 28.296875 48.523438 37.683594-64.519531 0-178.707031.050781-194.1875.050781zm41.386719 52.875c-10.394531 0-18.871094-8.464844-18.871094-18.871094 0-9.960937 7.765625-18.140625 17.546875-18.820312h92.339844c-7.472656 11.25-7.683594 26.121094.03125 37.691406zm-21.867188 68.175781h112.914063c-7.613282 11.417969-7.625 26.3125 0 37.742188h-112.914063c-10.40625 0-18.871093-8.472657-18.871093-18.871094 0-10.40625 8.464843-18.871094 18.871093-18.871094zm144.015625 90.667969h-179.476562c-10.410156 0-18.871094-8.460938-18.871094-18.871094 0-10.40625 8.460938-18.871094 18.871094-18.871094h179.476562c-7.625 11.429688-7.613281 26.324219 0 37.742188zm231.644532 0c-217.816407 0-203.855469.074219-205.566407-.140625-9.34375-1.113281-16.601562-9.089844-16.601562-18.730469 0-9.636718 7.257812-17.613281 16.601562-18.726562 1.75-.214844-11.683593-.144532 205.566407-.144532 10.40625 0 18.871093 8.464844 18.871093 18.871094 0 10.410156-8.464843 18.871094-18.871093 18.871094zm0 0"/><path d="m215.929688 110.597656c-3.980469-1.3125-8.277344.851563-9.59375 4.832032-21.683594 65.714843 21.597656 133.582031 88.445312 143.296874 94.183594 13.6875 160.253906-91.707031 106.539062-170.5-42.832031-62.824218-135.691406-64.425781-180.292968-1.816406-2.429688 3.414063-1.636719 8.15625 1.78125 10.589844 3.414062 2.433594 8.15625 1.636719 10.589844-1.78125 38.507812-54.050781 118.515624-52.5 155.375 1.5625 46.109374 67.640625-10.488282 158.726562-91.808594 146.914062-57.609375-8.371093-94.902344-66.855468-76.207032-123.507812 1.316407-3.980469-.847656-8.273438-4.828124-9.589844zm0 0"/></svg>