<svg height="496pt" viewBox="0 0 496 496" width="496pt" xmlns="http://www.w3.org/2000/svg" xmlns:xlink="http://www.w3.org/1999/xlink"><linearGradient id="a" gradientUnits="userSpaceOnUse" x1="248" x2="248" y1="496" y2="0"><stop offset="0" stop-color="#9f2fff"/><stop offset="1" stop-color="#0bb1d3"/></linearGradient><path d="m115.351562 217.175781 4.886719-9.769531c-2.535156-4.484375-4.503906-9.230469-5.878906-14.183594l-10.359375-3.453125v-27.539062l10.359375-3.445313c1.375-4.953125 3.34375-9.695312 5.878906-14.183594l-4.886719-9.769531 19.472657-19.472656 9.777343 4.886719c4.496094-2.535156 9.230469-4.503906 14.183594-5.886719l3.445313-10.359375h27.53125l3.453125 10.351562c4.953125 1.375 9.695312 3.34375 14.183594 5.886719l9.777343-4.886719 19.472657 19.472657-4.886719 9.777343c.742187 1.308594 1.429687 2.636719 2.0625 3.972657l-14.457031 6.859375c-.976563-2.050782-2.121094-4.074219-3.40625-6.007813l-2.578126-3.867187 3.800782-7.574219-3.160156-3.160156-7.589844 3.792969-3.859375-2.578126c-5.222657-3.488281-10.980469-5.871093-17.109375-7.09375l-4.554688-.914062-2.679687-8.03125h-4.46875l-2.671875 8.03125-4.554688.914062c-6.128906 1.222657-11.878906 3.613282-17.109375 7.09375l-3.859375 2.578126-7.589844-3.792969-3.160156 3.160156 3.800782 7.574219-2.578126 3.867187c-3.488281 5.222657-5.863281 10.980469-7.09375 17.109375l-.90625 4.554688-8.039062 2.679687v4.460938l8.039062 2.679687.90625 4.554688c1.222657 6.128906 3.605469 11.878906 7.09375 17.109375l2.578126 3.867187-3.800782 7.574219 3.160156 3.160156 7.589844-3.792969 3.859375 2.578126c5.222657 3.488281 10.980469 5.871093 17.109375 7.09375l4.554688.914062 2.679687 8.03125h4.46875l2.671875-8.03125 4.554688-.914062c6.128906-1.222657 11.878906-3.613282 17.109375-7.09375l3.859375-2.578126 7.589844 3.792969 3.160156-3.160156-3.800782-7.574219 2.578126-3.867187c1.285156-1.933594 2.429687-3.957031 3.40625-6.007813l14.457031 6.859375c-.632813 1.335938-1.320313 2.664063-2.0625 3.972657l4.886719 9.777343-19.472657 19.472657-9.777343-4.886719c-4.496094 2.535156-9.230469 4.503906-14.183594 5.886719l-3.445313 10.351562h-27.53125l-3.453125-10.351562c-4.953125-1.375-9.695312-3.34375-14.183594-5.886719l-9.777343 4.886719zm-46.839843-159.441406-10.757813-11.832031c32.542969-29.597656 74.535156-45.902344 118.246094-45.902344 94.367188 0 171.601562 74.65625 175.800781 168h44.886719l32-32h64.257812l-20 40 20 40h-64.257812l-32-32h-225.375l10.34375 10.34375-11.3125 11.3125-29.65625-29.65625 29.65625-29.65625 11.3125 11.3125-10.34375 10.34375h100.28125c-4.089844-49.191406-45.355469-88-95.59375-88-52.9375 0-96 43.0625-96 96s43.0625 96 96 96c44.65625 0 83.03125-30.359375 93.328125-73.839844l15.558594 3.6875c-12 50.71875-56.773438 86.152344-108.886719 86.152344-61.761719 0-112-50.238281-112-112s50.238281-112 112-112c59.054688 0 107.464844 45.976562 111.59375 104h16c-4.160156-66.847656-59.714844-120-127.59375-120-31.246094 0-61.40625 11.511719-84.929688 32.425781l-10.621093-11.960937c26.4375-23.511719 60.382812-36.464844 95.550781-36.464844 76.695312 0 139.40625 60.328125 143.59375 136h16c-4.210938-84.496094-74.066406-152-159.59375-152-39.71875 0-77.886719 14.824219-107.488281 41.734375zm350.800781 110.265625h39.742188l8-16h-31.742188zm0 16 16 16h31.742188l-8-16zm-243.3125 120c-70.574219 0-128-57.425781-128-128 0-31.246094 11.511719-61.40625 32.425781-84.929688l-11.953125-10.628906c-23.519531 26.445313-36.472656 60.390625-36.472656 95.558594 0 79.398438 64.601562 144 144 144 69.816406 0 129.375-49.871094 141.632812-118.59375l-15.753906-2.8125c-10.886718 61.078125-63.832031 105.40625-125.878906 105.40625zm-130.6875 192h-45.3125v-16h24.753906c-.441406-1.710938-.753906-3.464844-.753906-5.3125 0-2.878906.566406-5.671875 1.6875-8.296875l58.945312-140.015625c-50.703124-30.925781-84.632812-86.757812-84.632812-150.375 0-43.710938 16.304688-85.703125 45.894531-118.246094l11.839844 10.765625c-26.910156 29.59375-41.734375 67.761719-41.734375 107.480469 0 88.222656 71.777344 160 160 160 78.960938 0 146.960938-58.960938 158.167969-137.136719l15.839843 2.273438c-7.632812 53.222656-39.222656 98.296875-82.769531 124.96875l59.082031 140.308593c1.113282 2.601563 1.679688 5.394532 1.679688 8.273438 0 1.847656-.3125 3.609375-.753906 5.3125h24.753906v16zm196.582031-157.121094 58.050781 137.875c.832032 1.964844 2.75 3.246094 4.886719 3.246094h1.847657c2.9375 0 5.320312-2.382812 5.320312-5.3125 0-.710938-.144531-1.390625-.40625-2.03125l-58.425781-138.761719c-3.679688 1.816407-7.464844 3.425781-11.273438 4.984375zm-41.894531 141.121094h83.953125l-57.152344-135.726562c-8.6875 2.664062-17.648437 4.597656-26.800781 5.878906zm-32 0h16v-128.367188c-2.664062.121094-5.3125.367188-8 .367188-2.679688 0-5.34375-.078125-8-.199219zm-42.886719-135.527344-57.066406 135.527344h83.953125v-129.679688c-9.207031-1.265624-18.183594-3.214843-26.886719-5.847656zm-79.800781 135.527344h1.847656c2.144532 0 4.0625-1.28125 4.886719-3.246094l57.953125-137.640625c-3.816406-1.554687-7.574219-3.210937-11.257812-5.015625l-58.316407 138.535156c-.28125.664063-.425781 1.34375-.425781 2.054688 0 2.929688 2.382812 5.3125 5.3125 5.3125zm434.6875-152h-16v16h16zm0 40h-16v16h16zm-16 56h16v-16h-16zm16 24h-16v16h-16v16h16v16h16v-16h16v-16h-16zm-80-40h16v-16h-16zm16-56h-16v16h16zm0-40h-16v16h16zm0-40h16v-16h-16v-16h-16v16h-16v16h16v16h16zm0 0" fill="url(#a)"/></svg>