<svg xmlns="http://www.w3.org/2000/svg" xmlns:xlink="http://www.w3.org/1999/xlink" viewBox="0 0 912.343 692.4">
  <defs>
    <style>
      .cls-1, .cls-23 {
        fill: #6c63ff;
      }

      .cls-1, .cls-6 {
        opacity: 0.1;
      }

      .cls-2 {
        fill: #3a3768;
      }

      .cls-3 {
        fill: #d48a9b;
      }

      .cls-4 {
        opacity: 0.05;
      }

      .cls-5 {
        fill: #efc6cd;
      }

      .cls-7 {
        fill: #fff;
      }

      .cls-8 {
        fill: #d3dae1;
      }

      .cls-9 {
        fill: url(#linear-gradient);
      }

      .cls-10 {
        fill: #585b8a;
      }

      .cls-11 {
        opacity: 0.2;
      }

      .cls-12 {
        fill: #636992;
      }

      .cls-13 {
        fill: #ffd6d6;
      }

      .cls-14 {
        fill: #dce6f2;
      }

      .cls-15 {
        fill: #565988;
      }

      .cls-16 {
        fill: #505484;
      }

      .cls-17 {
        fill: #575988;
      }

      .cls-18 {
        fill: #d28690;
      }

      .cls-19 {
        fill: #575989;
      }

      .cls-20 {
        fill: #353045;
      }

      .cls-21 {
        fill: #f0f3f7;
      }

      .cls-22 {
        fill: #663d5c;
      }

      .cls-24 {
        opacity: 0.3;
      }

      .cls-25 {
        opacity: 0.15;
      }

      .cls-26 {
        fill: #ffd037;
      }

      .cls-27 {
        fill: #65617d;
      }

      .cls-28 {
        fill: #9d9cb5;
      }

      .cls-29 {
        fill: #4b4770;
      }

      .cls-30 {
        fill: #d4dfec;
      }
    </style>
    <linearGradient id="linear-gradient" x1="0.5" y1="1" x2="0.5" gradientUnits="objectBoundingBox">
      <stop offset="0" stop-color="gray" stop-opacity="0.251"/>
      <stop offset="0.54" stop-color="gray" stop-opacity="0.122"/>
      <stop offset="1" stop-color="gray" stop-opacity="0.102"/>
    </linearGradient>
  </defs>
  <g id="undraw_business_deal_cpi9" transform="translate(-29 -568)">
    <path id="Tracé_148" data-name="Tracé 148" class="cls-1" d="M966.181,236.561c-.159.744-.309,1.487-.485,2.223-5.482,25.278-14.44,49.637-27.76,72.008-.443.744-.886,1.487-1.337,2.231a206.933,206.933,0,0,1-31.295,39.5c-6.635,6.551-13.872,12.777-22.479,17.264-12.058,6.3-26.156,8.858-40.011,10.947-14.39,2.181-28.98,4-43.529,5.967q-7.755,1.028-15.418,2.181c-14.056,2.081-28.011,4.487-41.632,7.68-16.838,3.936-33.158,9.092-48.576,16.345q-1.847.836-3.652,1.772c-1.2.6-2.415,1.212-3.6,1.83s-2.357,1.237-3.518,1.872c-.6.326-1.2.652-1.8.994s-1.178.643-1.755.978c-1.738.969-3.443,1.964-5.148,2.966l-.067.042c-1.128.66-2.24,1.337-3.343,2.014-6.3,3.827-12.468,7.822-18.635,11.841l-3.877,2.507-6.008,3.886c-1.17.76-2.365,1.521-3.543,2.273-.836.552-1.671,1.1-2.582,1.671-4.379,2.758-8.816,5.465-13.37,8.047-1.078.618-2.164,1.237-3.259,1.838a185.211,185.211,0,0,1-28.763,12.969l-.134.05a131.209,131.209,0,0,1-15.276,4.312c-2.983.652-5.975,1.187-9,1.6a96.487,96.487,0,0,1-24.4.343c-15.936-1.847-30.869-7.964-46.8-10.028-32.791-4.178-64.637,9.284-95.473,19.83q-11.373,3.886-22.913,7.279c-5.114,1.513-10.245,2.942-15.418,4.32a580.136,580.136,0,0,1-96.684,16.955,272.291,272.291,0,0,1-41.072.911,150.832,150.832,0,0,1-15.409-1.671c-17.3-2.674-33.426-8.281-46.445-18.551-10.663-8.432-18.292-19.42-24.1-30.919a134.924,134.924,0,0,1-12.459-37.22c-.318-1.763-.6-3.535-.836-5.306q-.627-4.546-.936-9.142a130.854,130.854,0,0,1,5.749-48.342c5.515-17.482,14.707-34.262,18.752-51.877q.251-1.12.476-2.231a77.232,77.232,0,0,0,1.228-8.1c2.064-21.643-5.85-42.743-12.058-63.91-.217-.735-.435-1.479-.643-2.223q-1-3.526-1.922-7.044c-5.749-22.379-7.345-46.337-2.223-68.673.159-.744.351-1.487.535-2.223a100.545,100.545,0,0,1,18.9-38.716c9.593-12.033,22.186-22.053,35.64-30.852q9.836-6.434,20.34-12.025,7.521-4.011,15.409-7.6A303.469,303.469,0,0,1,361.382,42.824c2.507.109,5.014.242,7.521.426s5.248.4,7.872.643c30.635,2.975,60.442,10.153,90.041,18,9.919,2.632,19.822,5.331,29.716,7.98,4.4,1.17,8.8,2.34,13.2,3.476,21.568,5.574,43.454,10.621,65.615,14.39q7.7,1.329,15.409,2.423a441.4,441.4,0,0,0,53.891,4.571q10.521.209,21.05-.184,5.315-.192,10.638-.577c36.643-2.582,72.058-11.223,107.531-19.3q7.7-1.755,15.418-3.46c6.752-1.487,13.5-2.925,20.289-4.253,42.225-8.3,79.863-3.526,119.122,13.6,8.925,3.886,17.841,8.582,23.306,15.877s6.836,16.253,7.855,24.9c1.446,12.317,2.39,24.794,2.749,37.337,0,.735,0,1.479.05,2.223A335.132,335.132,0,0,1,966.181,236.561Z" transform="translate(-36.445 531.167)"/>
    <path id="Tracé_149" data-name="Tracé 149" class="cls-1" d="M687.99,310.862h-2.758v2.231h3.125Zm-31.278,0a.141.141,0,0,0,0,.059c-.075.61-.159,1.22-.242,1.838v.334h23.9v-.134l1.671-2.1Zm-64.052,0V238.854h27.493c-.292-.192-.593-.393-.9-.577l-.4-.259-.518-.318c-.3-.175-.6-.351-.919-.518s-.51-.284-.777-.426l-.184-.1H592.66v-3.969l-.643.251-.677.318h-.05l-.142.075-.426.226-.426.226c-.418.226-.836.476-1.253.735l-.4.267-.836.535c-1.078.719-2.139,1.471-3.234,2.173-.276.175-.551.351-.836.51-.593.351-1.2.685-1.83.986a6.984,6.984,0,0,1-.836.359l-.451.175-.418.142h0a19.57,19.57,0,0,1-3.008.786v70.395H535.969c0,.084.059.15.083.234.226.669.451,1.329.669,2H577.25v77.18h.627l.727.042,1.312.075,2.1.251.961.092,1.045.109h.159l1.847.226.393.05.894.125,1.279.184h0l3.067-.134h0l.418.075a2.9,2.9,0,0,1,.518.084V313.093h63.793v-.334c.084-.618.167-1.228.242-1.838a.143.143,0,0,1,0-.059Zm95.331,0h-2.758v2.231h3.125Zm-33,0c-.1.744-.192,1.487-.292,2.231h26.649l1.813-2.231Zm-62.331,0V238.854h27.493c-.292-.192-.593-.393-.9-.577l-.4-.259-.518-.318c-.3-.175-.6-.351-.919-.518s-.51-.284-.777-.426l-.184-.1H592.66v-3.969l-.643.251-.677.318h-.05l-.142.075-.426.226-.426.226c-.418.226-.836.476-1.254.735l-.4.267-.836.535c-1.078.719-2.139,1.471-3.234,2.173-.276.175-.552.351-.836.51-.593.351-1.2.685-1.83.986a6.986,6.986,0,0,1-.836.359l-.451.175-.418.142h0a19.57,19.57,0,0,1-3.008.786v70.395H535.969c0,.084.059.15.083.234.226.66.46,1.329.677,2h40.52v77.172h.627l.727.042,1.312.075,2.1.259.961.092,1.045.109h.159l1.847.226.393.05.894.125,1.279.184h0l3.067-.134h0l.418.075a2.9,2.9,0,0,1,.518.084V313.093h62.122c.1-.744.192-1.487.292-2.231ZM801.187,160.913H974.559c0-.744,0-1.487-.05-2.223H801.187V71.265q-7.721,1.671-15.418,3.46V158.69H597.214l-.476-.426.719-.635h0L667.592,94.6q-10.529.4-21.05.184l-53.891,48.417V90.234q-7.721-1.095-15.409-2.423v52.955L498.449,69.945c-9.894-2.649-19.8-5.348-29.716-7.98l107.155,96.3-.476.426H378.7V44.04q-3.936-.368-7.872-.643c-2.507-.184-5.014-.318-7.521-.426V158.69H225.476V69.5q-7.8,3.577-15.409,7.6V158.69H135.185c-.184.735-.376,1.479-.535,2.223h75.417v75.718H138.795c.209.744.426,1.487.643,2.223h70.629v72.008h-59.8q-.226,1.111-.476,2.231h60.275V514.425c5.014.777,10.2,1.32,15.409,1.671v-203H363.283V498.214c5.173-1.379,10.3-2.808,15.418-4.32v-180.8H577.25V474.832a131.187,131.187,0,0,0,15.276-4.312l.134-.05V313.093h193.11v75.86q7.688-1.128,15.418-2.164v-73.7H938.5c.451-.744.894-1.487,1.337-2.231H801.187V238.854H967.6c.176-.735.326-1.479.485-2.223h-166.9Zm-575.711,0H363.283v75.718H225.476Zm0,149.949V238.854H363.283v72.008ZM378.7,160.913H577.25v75.718H378.7Zm0,149.949V238.854H577.25v72.008Zm407.069,0H592.66V238.854h193.11Zm0-74.231H592.66V162.944l2.708-2.031h190.4ZM656.712,310.862a.141.141,0,0,0,0,.059c-.075.61-.159,1.22-.242,1.838v.334h23.9v-.134l1.671-2.1Zm31.278,0h-2.758v2.231h3.125Zm-95.331,0V238.854h27.493c-.292-.192-.593-.393-.9-.577l-.4-.259-.518-.318c-.3-.175-.6-.351-.919-.518s-.51-.284-.777-.426l-.184-.1H592.66v-3.969l-.643.251-.677.318h-.05l-.142.075-.426.226-.426.226c-.418.226-.836.476-1.253.735l-.4.267-.836.535c-1.078.719-2.139,1.471-3.234,2.173-.276.175-.551.351-.836.51-.593.351-1.2.685-1.83.986a6.984,6.984,0,0,1-.836.359l-.451.175-.418.142h0a19.57,19.57,0,0,1-3.008.786v70.395H535.969c0,.084.059.15.083.234.226.669.451,1.329.669,2H577.25v77.18h.627l.727.042,1.312.075,2.1.251.961.092,1.045.109h.159l1.847.226.393.05.894.125,1.279.184h0l3.067-.134h0l.418.075a2.9,2.9,0,0,1,.518.084V313.093h63.793v-.334c.084-.618.167-1.228.242-1.838a.143.143,0,0,1,0-.059Z" transform="translate(-38.347 531.097)"/>
    <path id="Tracé_150" data-name="Tracé 150" class="cls-1" d="M321.627,120.8h1.195a2.424,2.424,0,0,1-1.462-1.947h0c0-1.538,2.3-2.791,5.106-2.791H362.2c2.808,0,5.1,1.253,5.1,2.791h0c0,1.529-2.29,2.791-5.1,2.791H361a2.4,2.4,0,0,1,1.462,1.939c0,1.312-1.671,2.415-3.9,2.708H368.85c2.8,0,5.1,1.253,5.1,2.791s-2.3,2.791-5.1,2.791H333.109c-2.8,0-5.1-1.262-5.1-2.791,0-1.312,1.671-2.407,3.9-2.708H321.627c-2.808,0-5.1-1.253-5.1-2.791S318.82,120.8,321.627,120.8Z" transform="translate(-68.24 519.084)"/>
    <path id="Tracé_151" data-name="Tracé 151" class="cls-1" d="M785.067,152.568h1.2a2.424,2.424,0,0,1-1.454-1.947h0c0-1.538,2.29-2.791,5.1-2.791h35.732c2.808,0,5.106,1.253,5.106,2.791h0c0,1.529-2.3,2.783-5.106,2.783h-1.187a2.423,2.423,0,0,1,1.454,1.947c0,1.312-1.671,2.415-3.9,2.707H832.29c2.808,0,5.1,1.253,5.1,2.791s-2.29,2.791-5.1,2.791H796.558c-2.808,0-5.106-1.262-5.106-2.791,0-1.312,1.671-2.415,3.9-2.708H785.067c-2.8,0-5.1-1.253-5.1-2.791S782.268,152.568,785.067,152.568Z" transform="translate(-144.407 513.863)"/>
    <path id="Tracé_152" data-name="Tracé 152" class="cls-1" d="M256,288.528h1.187a2.415,2.415,0,0,1-1.454-1.947h0c0-1.529,2.3-2.791,5.1-2.791h35.741c2.8,0,5.1,1.262,5.1,2.791h0c0,1.538-2.3,2.791-5.1,2.791h-1.2a2.39,2.39,0,0,1,1.454,1.939c0,1.312-1.671,2.415-3.9,2.707H303.21c2.808,0,5.106,1.262,5.106,2.791s-2.3,2.791-5.106,2.791h-35.7c-2.808,0-5.1-1.254-5.1-2.791,0-1.3,1.671-2.407,3.9-2.707H256c-2.808,0-5.106-1.254-5.106-2.791S253.221,288.528,256,288.528Z" transform="translate(-57.451 491.517)"/>
    <ellipse id="Ellipse_12" data-name="Ellipse 12" class="cls-1" cx="54.284" cy="178.636" rx="54.284" ry="178.636" transform="translate(510.458 1059.481) rotate(-78.45)"/>
    <path id="Tracé_153" data-name="Tracé 153" class="cls-2" d="M828.56,412.212s9.5-46.637,45.777-42.317c0,0,25.069,1.721,30.225,18.134V424.3Z" transform="translate(-152.393 477.412)"/>
    <path id="Tracé_154" data-name="Tracé 154" class="cls-3" d="M940.492,400.293,617.456,373.51,576,382.151l2.591,57.869,2.824.343,3.217,86.9,316.986,57,33.693-28.5v-94.2l4.312-2.532Z" transform="translate(-65.667 506.612)"/>
    <path id="Tracé_155" data-name="Tracé 155" class="cls-4" d="M1005.564,405.56l-.869,58.729L969.715,480.7l-.435-61.328Z" transform="translate(-130.304 501.345)"/>
    <path id="Tracé_156" data-name="Tracé 156" class="cls-4" d="M999.439,478.94l.426,92.423-33.685,28.5,2.164-107.1Z" transform="translate(-129.795 489.285)"/>
    <path id="Tracé_157" data-name="Tracé 157" class="cls-4" d="M582.952,457.072l322.627,39.367.167-7.471L582.71,454.13Z" transform="translate(-66.77 493.362)"/>
    <path id="Tracé_158" data-name="Tracé 158" class="cls-4" d="M999.694,482.333V478.94L967.73,493.046v7.487Z" transform="translate(-130.049 489.285)"/>
    <path id="Tracé_159" data-name="Tracé 159" class="cls-5" d="M575.48,382.151l41.457-8.641,323.036,26.782L903.7,414.106Z" transform="translate(-65.582 506.612)"/>
    <path id="Tracé_160" data-name="Tracé 160" class="cls-6" d="M965.8,407.55l15.852,1.036-26.273,7.863L942,415.489Z" transform="translate(-125.821 501.018)"/>
    <path id="Tracé_161" data-name="Tracé 161" class="cls-7" d="M965.8,406.72l15.852,1.036-26.273,7.872L942,414.659Z" transform="translate(-125.821 501.154)"/>
    <path id="Tracé_162" data-name="Tracé 162" class="cls-8" d="M1022.32,444.545c.627-.267,1.287.242,1.955.368.385.075.777,0,1.162.075.777.1,1.546.618,2.29.359" transform="translate(-184.238 465.109)"/>
    <path id="Tracé_163" data-name="Tracé 163" class="cls-8" d="M1021.34,445.115c.619-.267,1.287.234,1.956.368.384.067.777,0,1.161.067.777.109,1.546.627,2.29.368" transform="translate(-184.077 465.016)"/>
    <path id="Tracé_164" data-name="Tracé 164" class="cls-8" d="M1019.08,446.255c.627-.267,1.3.234,1.964.359.376.075.777,0,1.153.075.786.109,1.554.627,2.29.359" transform="translate(-183.706 464.828)"/>
    <path id="Tracé_165" data-name="Tracé 165" class="cls-6" d="M883.8,398.21l15.852,1.045-26.273,7.863L860,406.149Z" transform="translate(-112.344 502.553)"/>
    <path id="Tracé_166" data-name="Tracé 166" class="cls-7" d="M883.8,397.39l15.852,1.036-26.273,7.863L860,405.329Z" transform="translate(-112.344 502.688)"/>
    <path id="Tracé_167" data-name="Tracé 167" class="cls-8" d="M940.32,435.215c.627-.267,1.287.234,1.955.368.384.067.777,0,1.162.067.777.109,1.546.627,2.29.368" transform="translate(-170.761 466.643)"/>
    <path id="Tracé_168" data-name="Tracé 168" class="cls-8" d="M939.34,435.785c.618-.267,1.287.234,1.955.359.384.075.777,0,1.161.075.777.109,1.546.627,2.29.359" transform="translate(-170.6 466.549)"/>
    <path id="Tracé_169" data-name="Tracé 169" class="cls-8" d="M937.08,436.915c.627-.267,1.3.242,1.964.368.376.075.777,0,1.153.075.786.1,1.554.627,2.29.359" transform="translate(-170.229 466.363)"/>
    <path id="Tracé_170" data-name="Tracé 170" class="cls-6" d="M923.129,402.88l15.86,1.036-26.273,7.872-13.387-.969Z" transform="translate(-118.808 501.785)"/>
    <path id="Tracé_171" data-name="Tracé 171" class="cls-7" d="M923.129,402.06l15.86,1.036-26.273,7.863-13.387-.969Z" transform="translate(-118.808 501.92)"/>
    <path id="Tracé_172" data-name="Tracé 172" class="cls-8" d="M979.65,439.885c.627-.267,1.3.234,1.964.359.376.075.769,0,1.153.075.777.1,1.554.627,2.29.359" transform="translate(-177.225 465.875)"/>
    <path id="Tracé_173" data-name="Tracé 173" class="cls-8" d="M978.67,440.445c.627-.267,1.3.242,1.964.368.376.075.769,0,1.153.075.777.1,1.554.627,2.29.359" transform="translate(-177.064 465.783)"/>
    <path id="Tracé_174" data-name="Tracé 174" class="cls-8" d="M976.42,441.585c.618-.267,1.287.234,1.955.368.384.067.777,0,1.161.067.777.109,1.546.627,2.29.368" transform="translate(-176.694 465.596)"/>
    <ellipse id="Ellipse_13" data-name="Ellipse 13" class="cls-1" cx="169.202" cy="34.83" rx="169.202" ry="34.83" transform="translate(276.218 1159.655)"/>
    <path id="Tracé_175" data-name="Tracé 175" class="cls-9" d="M710.639,408.259c-1.8-15.861-8.95-30.994-8.95-30.994l.543-5.348s.117-2.674-.058-6.685a30.418,30.418,0,0,1,.978-7.421c1.462-4.638-1.83-10.337-2.2-10.863s.184-10.7-3.109-15.685S672.626,317,672.626,317s-1.178-2.465-2.841-5.348l.15-.293a31.419,31.419,0,0,0-5.014-6.76c-1.345-1.437-2.641-2.256-3.685-1.855a30.067,30.067,0,0,1-.969-4.237c.217.058.443.117.66.159a6.819,6.819,0,0,0,2.758.067c2.039-.46,3.393-2.29,4.529-4.011,5.666-8.607,10.546-18.05,11.54-28.237a17.949,17.949,0,0,0-.293-6.234,21.031,21.031,0,0,0-1.955-4.554,36.6,36.6,0,0,0-5.515-8.131c-3.9-4.111-9.284-6.627-14.816-8.114a51.291,51.291,0,0,0-19.136-1.429c-1.671.192-3.343.468-5.014.577a52.078,52.078,0,0,1-6.359-.109l-10.939-.635-.05-.167-1.822-.109c-.719,1.429,0,3.125.894,4.462s1.922,2.733,1.847,4.312-1.22,2.85-2.114,4.178-1.571,3.067-.677,4.37a2.508,2.508,0,0,0,.443.485c.944.978,2.591,1.086,4.02,1.07h.251a27.217,27.217,0,0,0-5.54,16.479,27.71,27.71,0,0,0,15.117,24.551c.159.543.318,1.1.468,1.671a51.191,51.191,0,0,1,1.755,18.067l-.192.418-.117-.443s-12.886,8.741-16.713,11.056-7.671,10.161-7.855,12.3-6.217,34.4-6.217,34.4a79.036,79.036,0,0,0-3.025,9.961l-7.7,6.76s-15.877,1.429-20.473.359l.134.886a69.435,69.435,0,0,0-12.334-1.671,13.078,13.078,0,0,0-6.685.894l-.159.075-.125.058a26.491,26.491,0,0,0-7.019,1.972c-.267.109-.51.217-.744.326l.05-1.095-17.181-.886-8.774-1.78s-3.108-2.507-4.939-2.139-5.666-2.139-5.666-2.139a15.316,15.316,0,0,0-2.824-1.755c-.293-2.022-.476-3.251-.476-3.251s-6.827-27.092-11.941-43.019c-3.426-10.638-8.356-15.877-11.265-18.159-1.3-2.256-2.148-3.71-2.148-3.71-.56-1.955-3.635-6.359-4.421-6.468-.125-.2-.217-.3-.267-.3a.978.978,0,0,0-.493.075c-1.437-7.153-2.273-16.12-.075-23.933a26.415,26.415,0,0,0,9.643-20.356q0-.176,0-.351v-.359a26.3,26.3,0,0,0-6.209-16.964l-.284-.318a2.22,2.22,0,0,0,.217-.176,4.479,4.479,0,0,0,1.579-4.312c-.376-1.6-1.63-2.866-2.273-4.387a28.42,28.42,0,0,1-.928-3.577,11.03,11.03,0,0,0-2.632-4.588l.125.334a15.88,15.88,0,0,0-13.98-4.7c-3.769.6-7.278,2.357-11.064,2.9-2.716.384-5.482.134-8.214.409a21.317,21.317,0,0,0-7.287,2.106,4.178,4.178,0,0,0-1.546,1.137,6.117,6.117,0,0,0-.769,2.148c-.928,3.384-3.869,5.8-6,8.624a20.181,20.181,0,0,0-4.045,11.148,8.724,8.724,0,0,0,.292,3.05c.184.593.468,1.153.6,1.755.418,1.838-.543,3.668-1.011,5.49a10.688,10.688,0,0,0,.593,6.969c3.3,7.387,14.139,9.852,16.4,17.607a21.568,21.568,0,0,0,5.423,1.671c.15.769.284,1.546.393,2.331a.632.632,0,0,0-.142.084c-2.925,2.849-3.652,8.356-3.652,8.356l-.351.284c-1.195.986-5.281,4.3-8.975,6.844-4.387,3.033-11.7,13.195-16.813,16.228s-9.326,21.727-8.223,28.521,5.666,25.847,3.836,32.8,2.741,38.682,2.741,38.682a46.717,46.717,0,0,1,8.958,2.657l-.092,1.387-.276,4.178s-8.281,29.95-5.114,53.005-1.462,25.429-1.462,25.429.969,10.22-1.462,13.788-2.925,11.406-2.925,11.406-.242,17.59.242,22.563.727,14.031-.978,16.17-4.872,16.153-4.63,20.432-6.092,14.031-2.682,26.624S387.67,635.89,387.67,635.89s1.713,19.22,5.365,24.719l.535.786c-.092.318-.184.652-.284,1.011-1.379,5.014-3.267,12.927-1.955,14.841,1.947,2.858,2.925,2.373,2.925,2.373l.727,12.835s14.624,12.359,25.838,11.891,9.017-11.891,9.017-11.891l-9.551-24.768-.326-.836,10.613-20.056s2.925-8.791,3.652-11.883,4.7-14.047,4.7-14.047,10.028-23.766,10.237-26.624.978-18.292,2.925-21.392,7.312-20.891,7.312-20.891l.134.117a7.044,7.044,0,0,1,1.822,7.011c-1.228,4.513-.493,13.78-.493,13.78a93.747,93.747,0,0,1-1.462,11.891c-.978,4.045-1.212,37.078.493,44.916,1.362,6.276,1.32,18.025,1.254,22.471-1.145,4.721-2.148,10.588-.284,11.281,3.175,1.195,19.262.953,19.262.953s6.819-2.382,16.086,5.941,37.771-2.373,37.771-2.373,8.774-2.381-8.532-9.267c-12.075-4.805-19.872-8.005-24.969-11.432.117-.226.242-.451.351-.694,0,0-7.07-6.685-1.22-18.535s5.607-21.869,5.607-21.869l.978-39.936L503.265,513.2,501,457.562l.4-.134c.384,10.228,2.382,34.579,12.836,29.858,13.161-5.941,1.947-21.393,1.947-21.393l-5.908-11.515,1.763-.6-6.61-21.359a48.173,48.173,0,0,1-.251-12.593,49.889,49.889,0,0,0-.15-7.354c8.657-1.513,16.947-3.117,18.434-2.749,1.755.426,11.574.51,15.434.526-1.262.986-2.273,1.964-2.273,1.964l15.719,10.579s5.331-2.916,6.443-6.008a6.936,6.936,0,0,0,2.942-1.571c.167,3.652,1.136,7.6,4.513,7.7a5.848,5.848,0,0,0,2.457-.485l25.7-5.089-2.206,13.78,1.538,2.733c-.777,11.624-1.671,23.966-2.457,34.821l-.359,2.373.184.042c-1.22,16.713-2.2,29.373-2.2,29.373a15.4,15.4,0,0,1,6.409-6.443l.167,24.8s1.287,39.217,1.287,44.565.175,17.29.175,17.29,2.749,14.615,4.387,19.429,2.925,26.741,2.925,26.741,3.844,6.058,2.2,8.356,6.4,7.3,6.4,7.3-5.122,6.953-5.49,11.59c-.042.535.485,1.1,1.437,1.671-.3.242-.61.485-.953.719-2.373,1.588-5.85,2.691-11.081,2.24-14.264-1.253-24.317,11.941-15.543,14.615s35.1,3.209,35.1,3.209,7.972-4.972,14.206-2.733c-.092,5.231.167,10.028.209,10.663l-.075.058c-3.727,3.343-10.863,9.092-17.833,11.44-10.028,3.384-12.25,17.114.727,18.894s31.989-2.139,31.989-2.139,9.869-7.3,17.365-8.908,13.9-5.173,12.618-9.451c-.836-2.732-2.983-9.894-4.437-14.707q-.125-.435-.251-.836c.226-.5.451-1.019.66-1.554,0,0-3.836-19.964-.727-24.953s1.462-54.91,1.462-54.91-5.306-12.652-2.557-20.315-4.387-18.543-4.387-18.543.777-21.8,2.866-33.952q.142-.777.276-1.5a68.474,68.474,0,0,0,10.195-3.936s1.83-27.459,2.925-33.693c.109-.585.259-1.529.443-2.758l.836-4.4h0l.986-5.014h0l3.343-17.089,6.033-7.8,15.543-15.877S712.469,424.128,710.639,408.259Zm-239.7-98.046-.117.084a1.447,1.447,0,0,1-.042-.184.754.754,0,0,0,.159.1Zm153.567,19.462-.6,1.312,2.2-2.189-2.983,3.343,1-2.106Zm-14.841,30.668c-.577,1.529-1.2,3.184-1.838,4.905l1.178-3.518Z" transform="translate(-79.932 501.002)"/>
    <path id="Tracé_176" data-name="Tracé 176" class="cls-10" d="M595.876,445.546s-2.047,13.629,4.095,13.8,10.245-10.512,10.245-10.512l-2.507-8.549Z" transform="translate(-114.097 465.796)"/>
    <path id="Tracé_177" data-name="Tracé 177" class="cls-11" d="M595.876,445.546s-2.047,13.629,4.095,13.8,10.245-10.512,10.245-10.512l-2.507-8.549Z" transform="translate(-114.097 465.796)"/>
    <path id="Tracé_178" data-name="Tracé 178" class="cls-12" d="M425.571,790.556c-10.93.476-25.186-11.875-25.186-11.875l-.71-12.827s-.944.476-2.85-2.373c-1.279-1.914.56-9.844,1.905-14.833.652-2.44,1.187-4.178,1.187-4.178l23.983,6.418,1.145,3.033,9.309,24.752S436.493,790.08,425.571,790.556Z" transform="translate(-81.365 415.803)"/>
    <path id="Tracé_179" data-name="Tracé 179" class="cls-12" d="M548.975,750.776s-27.785,10.688-36.768,2.373-15.677-5.942-15.677-5.942-15.677.242-18.769-.953c-1.822-.694-.836-6.635.3-11.365.769-3.267,1.6-5.967,1.6-5.967s27.309-9.267,31.587-3.568a20.482,20.482,0,0,0,4.554,4.345c4.947,3.576,12.677,6.819,24.9,11.808C557.524,748.394,548.975,750.776,548.975,750.776Z" transform="translate(-94.573 419.249)"/>
    <path id="Tracé_180" data-name="Tracé 180" class="cls-13" d="M531.986,496.35l7.6,15.2s10.93,15.443-1.9,21.376S525.1,498.732,525.1,498.732Z" transform="translate(-102.519 456.582)"/>
    <path id="Tracé_181" data-name="Tracé 181" class="cls-14" d="M495.25,338.61s8.315,3.8,13.3,19.713,11.641,42.994,11.641,42.994,4.513,30.635,3.794,38.239a49.3,49.3,0,0,0,.242,12.585l6.409,21.376-12.827,4.513L498.1,402.5Z" transform="translate(-97.613 482.507)"/>
    <path id="Tracé_182" data-name="Tracé 182" class="cls-4" d="M495.25,338.61s8.315,3.8,13.3,19.713,11.641,42.994,11.641,42.994,4.513,30.635,3.794,38.239a49.3,49.3,0,0,0,.242,12.585l6.409,21.376-12.827,4.513L498.1,402.5Z" transform="translate(-97.613 482.507)"/>
    <path id="Tracé_183" data-name="Tracé 183" class="cls-6" d="M424.355,750.9l1.145,3.033-1.4,2.682c-5.465,2.373-19,.476-19,.476s-2.507-3.184-5.933-8.423c.652-2.44,1.187-4.178,1.187-4.178Z" transform="translate(-81.82 415.8)"/>
    <path id="Tracé_184" data-name="Tracé 184" class="cls-6" d="M516.921,730.821c-6.928,15.693-30.476,9.869-37.019,7.905-1.078-.326-1.671-.543-1.671-.543s.042-1.279.058-3.292c.769-3.267,1.6-5.966,1.6-5.966s27.309-9.267,31.587-3.568a20.483,20.483,0,0,0,4.554,4.345,8.042,8.042,0,0,0,.886,1.12Z" transform="translate(-94.815 419.249)"/>
    <path id="Tracé_185" data-name="Tracé 185" class="cls-15" d="M501.655,667.7c-5.7,11.866,1.2,18.526,1.2,18.526-6.927,15.685-30.476,9.869-37.019,7.9-1.078-.318-1.671-.535-1.671-.535s.476-16.4-1.187-24.234-1.429-40.846-.476-44.883a95.553,95.553,0,0,0,1.421-11.883s-.71-9.259.476-13.771a7.112,7.112,0,0,0-1.772-7l-.125-.125s-5.223,17.816-7.128,20.891-2.607,18.526-2.85,21.376-9.978,26.607-9.978,26.607-3.794,10.922-4.5,14.005-3.568,11.883-3.568,11.883l-11.448,22.094c-5.465,2.373-19,.476-19,.476s-2.607-3.343-6.175-8.791-5.223-24.693-5.223-24.693,13.061-.242,9.735-12.827,2.85-22.328,2.616-26.607,2.849-18.284,4.512-20.423,1.421-11.164.944-16.153-.234-22.562-.234-22.562.476-7.838,2.85-11.4,1.429-13.78,1.429-13.78,4.5-2.373,1.421-25.412,5.014-52.963,5.014-52.963l.276-4.178.435-6.769s67.93-4.279,73.395.944a18.019,18.019,0,0,1,3.468,4.972,49.465,49.465,0,0,1,3.927,12.643l2.85,71.966,2.85,52.963-.953,39.9A53.045,53.045,0,0,1,501.655,667.7Z" transform="translate(-80.745 462.423)"/>
    <path id="Tracé_186" data-name="Tracé 186" class="cls-6" d="M495.113,538.42,487.985,692.8l-8.557,14.072c-1.078-.318-1.671-.535-1.671-.535s.476-16.4-1.187-24.234-1.429-40.846-.476-44.883a95.553,95.553,0,0,0,1.421-11.883s-.71-9.259.476-13.771a7.111,7.111,0,0,0-1.772-7l.117-.836Z" transform="translate(-94.342 449.668)"/>
    <path id="Tracé_187" data-name="Tracé 187" class="cls-6" d="M407.048,735.733s18.526-7.362,21.376-5.014-21.844,5.933-21.844,5.933Z" transform="translate(-83.039 418.139)"/>
    <path id="Tracé_188" data-name="Tracé 188" class="cls-6" d="M513.186,713.5c-.71.242-18.76,6.685-17.1,13.537S513.186,713.5,513.186,713.5Z" transform="translate(-97.733 420.893)"/>
    <path id="Tracé_189" data-name="Tracé 189" class="cls-13" d="M449.07,291.279s6.05,14.607,2.85,22.094,34.554,20.306,34.554,20.306-11.039-28.5-.351-44.54S449.07,291.279,449.07,291.279Z" transform="translate(-90.023 491.725)"/>
    <path id="Tracé_190" data-name="Tracé 190" class="cls-16" d="M702.423,793.367c-7.3,1.6-16.922,8.908-16.922,8.908s-18.526,3.919-31.178,2.139-10.5-15.5-.71-18.886c6.794-2.34,13.755-8.114,17.39-11.423,1.6-1.479,2.557-2.507,2.557-2.507l35.456-7.128s.577,1.98,1.379,4.713c1.421,4.822,3.518,11.975,4.32,14.7C715.96,788.2,709.726,791.762,702.423,793.367Z" transform="translate(-122.314 412.516)"/>
    <path id="Tracé_191" data-name="Tracé 191" class="cls-16" d="M688.236,760.925s-14.966,1.6-21.2-1.955-15.142,2.139-15.142,2.139-25.654-.535-34.2-3.209,1.245-15.877,15.142-14.607c5.064.46,8.49-.652,10.8-2.24a11.381,11.381,0,0,0,4.7-7.053l30.083,1.78,4.178,10.663Z" transform="translate(-117.21 417.524)"/>
    <path id="Tracé_192" data-name="Tracé 192" class="cls-6" d="M688.8,751.306s-34.964-5.716-39.426-10.254a11.382,11.382,0,0,0,4.7-7.053l30.083,1.78,4.178,10.663Z" transform="translate(-122.943 417.524)"/>
    <path id="Tracé_193" data-name="Tracé 193" class="cls-17" d="M634.52,514.875l.359,52.186s1.245,39.192,1.245,44.54.175,17.273.175,17.273,2.674,14.607,4.279,19.42,2.849,26.741,2.849,26.741,3.744,6.058,2.139,8.356,6.234,7.3,6.234,7.3-5.014,6.953-5.34,11.582,39.894,11.206,39.894,11.206l-15.668-160.67L658.211,512.56Z" transform="translate(-120.502 453.918)"/>
    <path id="Tracé_194" data-name="Tracé 194" class="cls-6" d="M634.52,514.875l.359,52.186s1.245,39.192,1.245,44.54.175,17.273.175,17.273,2.674,14.607,4.279,19.42,2.849,26.741,2.849,26.741,3.744,6.058,2.139,8.356,6.234,7.3,6.234,7.3-5.014,6.953-5.34,11.582,39.894,11.206,39.894,11.206l-15.668-160.67L658.211,512.56Z" transform="translate(-120.502 453.918)"/>
    <path id="Tracé_195" data-name="Tracé 195" class="cls-6" d="M715.4,769.225c-11.641,27.752-39.325,6.334-39.325,6.334s0-.535-.067-1.454c1.6-1.479,2.557-2.507,2.557-2.507l35.457-7.128S714.6,766.492,715.4,769.225Z" transform="translate(-127.321 412.516)"/>
    <path id="Tracé_196" data-name="Tracé 196" class="cls-17" d="M710.418,724.274c-11.407,29.248-39.727,7.3-39.727,7.3s-.894-15.142.894-22.086-1.964-27.794-1.964-27.794-2.139-18.526-4.095-22.8-1.78-12.827-1.78-13.537.71-6.418-.894-10.337-2.507-13.538-2.507-13.538,0-13.537-1.6-21.551l-5.524-27.576-9.978-56.473,3.117-.535L702.2,505.56s10.512,53.482,6.944,58.963c-.769,1.2-1.446,3.836-2.006,7.228-2.039,12.134-2.8,33.919-2.8,33.919s6.944,10.863,4.278,18.526,2.507,20.306,2.507,20.306,1.6,49.88-1.429,54.868S710.418,724.274,710.418,724.274Z" transform="translate(-121.935 455.069)"/>
    <path id="Tracé_197" data-name="Tracé 197" class="cls-18" d="M709.049,323.946s-50.59,35.624-39.192,17.808c6.142-9.593,5.014-21.81,2.607-31.036a73.234,73.234,0,0,0-5.014-13.613s42.986-18.284,37.287-1.9a30.7,30.7,0,0,0-1.671,11.9A31.755,31.755,0,0,0,709.049,323.946Z" transform="translate(-125.914 490.762)"/>
    <path id="Tracé_198" data-name="Tracé 198" class="cls-18" d="M603.083,428.023s-21.376-6.175-24.936-.117,1.07,19.354,7.521,21.493,21.259-7.245,21.259-7.245Z" transform="translate(-111.034 468.269)"/>
    <path id="Tracé_199" data-name="Tracé 199" class="cls-10" d="M631.483,416l-8.908,8.2s-15.5,1.421-19.955.351c0,0,4.1,27.434-1.78,30.819l35.983-7.3Z" transform="translate(-114.967 469.788)"/>
    <path id="Tracé_200" data-name="Tracé 200" class="cls-6" d="M631.483,416l-8.908,8.2s-15.5,1.421-19.955.351c0,0,4.1,27.434-1.78,30.819l35.983-7.3Z" transform="translate(-114.967 469.788)"/>
    <path id="Tracé_201" data-name="Tracé 201" class="cls-6" d="M490.127,269.623a26.741,26.741,0,0,1-26.741,26.741c-13.721-6.593-26.741-11.958-26.741-26.741a26.741,26.741,0,1,1,53.44,0Z" transform="translate(-87.977 498.414)"/>
    <path id="Tracé_202" data-name="Tracé 202" class="cls-13" d="M490.15,268.984a26.691,26.691,0,1,1-6.05-16.905A26.69,26.69,0,0,1,490.15,268.984Z" transform="translate(-88.001 498.335)"/>
    <path id="Tracé_203" data-name="Tracé 203" class="cls-6" d="M504.1,468.412a60.442,60.442,0,0,1-8.281,4.3s-13.537-1.964-15.493.351-19.22,3.209-19.22,3.209-26.365-1.245-30.284-4.63a16.047,16.047,0,0,0-4-2.373l.435-6.769s67.93-4.278,73.395.944a18.014,18.014,0,0,1,3.451,4.972Z" transform="translate(-86.366 462.418)"/>
    <path id="Tracé_204" data-name="Tracé 204" class="cls-14" d="M504.406,438.54c-.535,3.025-11.582,7.655-11.582,7.655s-13.537-1.955-15.493.359-19.22,3.209-19.22,3.209-26.365-1.254-30.284-4.638-12.652-5.014-12.652-5.014-4.454-31.7-2.666-38.649-2.674-26.014-3.744-32.782,3.025-25.47,8.014-28.5S428.9,327,433.167,323.972c3.6-2.549,7.579-5.85,8.741-6.844l.343-.284s.719-5.524,3.568-8.357,29.03,17.992,29.03,17.992.184,1.6,1.964-1.421c.4-.677,3.852,4.3,4.454,6.409,0,0,14.248,24.944,15.142,30.083s4.63,21.911,5.34,26.005c.184,1.053.485,4.747.836,9.694.067.969.125,2,.2,3.067.526,8.206,1.095,18.685,1.437,26.607,0,.9.075,1.772.1,2.607a88.7,88.7,0,0,1,.084,9.008Z" transform="translate(-83.371 487.502)"/>
    <path id="Tracé_205" data-name="Tracé 205" class="cls-6" d="M415,387.21s9.794,11.933,13,11.933S415,387.21,415,387.21Z" transform="translate(-84.423 474.52)"/>
    <path id="Tracé_206" data-name="Tracé 206" class="cls-6" d="M436.918,417.91s-16.036,17.457-13.9,20.666S436.918,417.91,436.918,417.91Z" transform="translate(-85.709 469.474)"/>
    <path id="Tracé_207" data-name="Tracé 207" class="cls-6" d="M425.62,454.155S444,434.024,444.84,427.08Z" transform="translate(-86.169 467.967)"/>
    <path id="Tracé_208" data-name="Tracé 208" class="cls-6" d="M453.33,456.887s21.2-11.223,22.98-20.131S453.33,456.887,453.33,456.887Z" transform="translate(-90.723 466.656)"/>
    <path id="Tracé_209" data-name="Tracé 209" class="cls-6" d="M484.941,331.123,482,338.243l4.9,2.315,4.813,13.454s13.27,26.54,12.735,40.345,2.407,34.554,2.407,34.554l7.654-1.421-3.61-40.6a58.573,58.573,0,0,0-4.663-18.225c-6.117-14.005-17.5-39.86-18.217-39.86-.978,0-.293.359-.293.359Z" transform="translate(-95.435 484.12)"/>
    <path id="Tracé_210" data-name="Tracé 210" class="cls-19" d="M485.792,330.265l-2.942,7.128,4.905,2.315,4.8,13.454s13.27,26.54,12.735,40.345,2.407,34.554,2.407,34.554l7.663-1.421-3.618-40.6a58.344,58.344,0,0,0-4.655-18.226c-6.117-14.014-17.5-39.86-18.209-39.86-.986,0-.3.359-.3.359Z" transform="translate(-95.575 484.259)"/>
    <path id="Tracé_211" data-name="Tracé 211" class="cls-13" d="M586.694,451.122c-3.727-.284-12.668-4.8-16.22-6.685l-1.5-.836.184-13.8a24.226,24.226,0,0,1,2.724-1.379c4.746-2.072,14.482-4.889,19.362,4.178C597.825,444.763,591.416,451.44,586.694,451.122Z" transform="translate(-109.729 468.092)"/>
    <path id="Tracé_212" data-name="Tracé 212" class="cls-6" d="M484.072,252.061a3.954,3.954,0,0,1-1.245.51c-3.1.677-6.627-1.989-9.284-.276-1.621,1.053-2,3.234-2.214,5.156q-.568,5.014-1.137,9.961a12.29,12.29,0,0,1-.735,3.434c-1.312,3-4.914,4.412-8.2,4.362a4.888,4.888,0,0,1-3.535-1.17c-.577-.585-.886-1.4-1.521-1.939-4.178-3.5-5.448,5.081-4.345,7.521,1.772,3.986,8.064,7.83,5.423,12.894a4.831,4.831,0,0,1-1.939,1.947,26.741,26.741,0,1,1,28.73-42.4Z" transform="translate(-87.972 498.353)"/>
    <path id="Tracé_213" data-name="Tracé 213" class="cls-20" d="M453.8,269.69c.627.526.944,1.345,1.521,1.93a4.9,4.9,0,0,0,3.535,1.17c3.284.05,6.886-1.354,8.189-4.37a11.9,11.9,0,0,0,.744-3.426l1.136-9.961c.217-1.922.585-4.1,2.214-5.156,2.657-1.671,6.184.953,9.284.276a4.538,4.538,0,0,0,3.343-5.231c-.359-1.6-1.579-2.858-2.206-4.379a28.61,28.61,0,0,1-.911-3.568c-1.73-6.485-9.343-10.128-15.961-9.042-3.677.61-7.095,2.365-10.78,2.9-2.641.384-5.34.134-8.005.418a20.207,20.207,0,0,0-7.1,2.1,4.128,4.128,0,0,0-1.5,1.136,6.275,6.275,0,0,0-.752,2.139c-.894,3.343-3.769,5.808-5.85,8.624a20.548,20.548,0,0,0-3.961,11.122,8.917,8.917,0,0,0,.284,3.05c.175.585.451,1.153.585,1.755.409,1.83-.526,3.66-.986,5.482a10.963,10.963,0,0,0,.585,6.969c3.209,7.379,13.78,9.844,15.977,17.59a17.548,17.548,0,0,0,6.217,1.671,6,6,0,0,0,5.482-2.8c2.632-5.014-3.652-8.908-5.423-12.886C448.345,274.754,449.59,266.18,453.8,269.69Z" transform="translate(-86.281 500.729)"/>
    <path id="Tracé_214" data-name="Tracé 214" class="cls-6" d="M704.785,295.208a30.7,30.7,0,0,0-1.671,11.9c-1.287,1.095-2.691-2.181-4.178-1.337-4.078,2.357-8.791,7.964-13.838,7.964a27.718,27.718,0,0,1-12.593-3.017,73.234,73.234,0,0,0-5.014-13.613S710.484,278.821,704.785,295.208Z" transform="translate(-125.921 490.762)"/>
    <path id="Tracé_215" data-name="Tracé 215" class="cls-18" d="M710.847,278.294A27.794,27.794,0,1,1,683.054,250.5,27.794,27.794,0,0,1,710.847,278.294Z" transform="translate(-123.911 496.989)"/>
    <path id="Tracé_216" data-name="Tracé 216" class="cls-21" d="M706.858,335.247s-5.231,5.7-5.942,6.167S685.04,405.759,684.772,406.5s-18.058,58.42-18.058,58.42l-28.5,14.014,2.382-70.545,20.891-58.178s6.894-7.838,9.025-10.688,28.738-19.955,28.738-19.955l4.546,9.368Z" transform="translate(-121.108 485.637)"/>
    <path id="Tracé_217" data-name="Tracé 217" class="cls-6" d="M709.3,330.648l-32.774,23.465L676,341.227c2.139-2.85,28.738-19.947,28.738-19.947Z" transform="translate(-127.319 485.356)"/>
    <path id="Tracé_218" data-name="Tracé 218" class="cls-21" d="M710.154,328.938,677.38,352.4l-.51-12.877c2.139-2.858,28.738-19.955,28.738-19.955Z" transform="translate(-127.463 485.637)"/>
    <path id="Tracé_219" data-name="Tracé 219" class="cls-10" d="M667.62,336.59l1.095,5.732-7.329,7.446,5.85-13.095s-12.535,8.732-16.3,11.047-7.521,10.153-7.663,12.292-6.058,34.378-6.058,34.378-4.454,11.933-3.2,15.317S627.25,519.8,627.25,519.8a15.877,15.877,0,0,1,10.713-8.214l-2.858-63.058s3.476-41.95,3.652-42.484,8.106-24.852,8.106-24.852Z" transform="translate(-119.307 482.839)"/>
    <path id="Tracé_220" data-name="Tracé 220" class="cls-6" d="M670.214,344.3l-.568,11.7s-7.93,25.028-10.6,29.122-10.78,28.5-10.78,28.5l-4.571,42.4-7.838,3.568L632,452.483l6.418-40.947s12.108-34.554,13.9-38.122l8.933-18.819Z" transform="translate(-120.088 481.572)"/>
    <path id="Tracé_221" data-name="Tracé 221" class="cls-22" d="M669.349,343.45l-.56,11.7s-7.93,25.028-10.6,29.122-10.772,28.5-10.772,28.5l-4.546,42.392-7.838,3.56-3.919-7.12,6.418-40.947s12.109-34.562,13.888-38.122l9-18.794Z" transform="translate(-119.942 481.712)"/>
    <path id="Tracé_222" data-name="Tracé 222" class="cls-18" d="M566.31,449.546l15.317,10.6s10.8-6.058,4.512-9.978a27.9,27.9,0,0,0-13.9-4.513C570.221,445.66,566.31,449.546,566.31,449.546Z" transform="translate(-109.292 464.914)"/>
    <path id="Tracé_223" data-name="Tracé 223" class="cls-18" d="M579.781,426.573a2.356,2.356,0,0,0-1.112,2.014c0,3.251.368,11.858,3.092,7.972,3.343-4.755,2.733-9.025,7.838-5.941a30.084,30.084,0,0,1,8.189,7.521l-1.421-10.212S585.873,422.746,579.781,426.573Z" transform="translate(-111.323 468.282)"/>
    <path id="Tracé_224" data-name="Tracé 224" class="cls-6" d="M709.694,564.483c-.769,1.2-1.446,3.836-2.006,7.228-31.236,9.368-54.091-10.437-54.091-10.437a272.644,272.644,0,0,1-6.769-28.5c-.56-3.292-.435-9.677.084-17.465l55.846-9.794S713.262,558.96,709.694,564.483Z" transform="translate(-122.465 455.075)"/>
    <path id="Tracé_225" data-name="Tracé 225" class="cls-10" d="M741.748,374.443c-1.421,4.638-.886,14.072-.886,14.072l-12.827,60.568s-6.234,46.671-7.3,52.9-2.849,33.668-2.849,33.668c-36.342,17.816-64.345-6.409-64.345-6.409a273.122,273.122,0,0,1-6.769-28.5c-1.788-10.579,3.476-52.963,5.967-71.79.744-5.574,1.245-9.083,1.245-9.083l9.351-34.738s11.49-29.306,15.769-37.855,21.459-27.752,21.459-27.752c2.131-1.354,5.54,3.426,8.072,7.78,1.914,3.292,3.343,6.351,3.343,6.351s21.376,9.259,24.576,14.206,2.674,15.142,3.033,15.677S743.177,369.813,741.748,374.443Z" transform="translate(-122.455 485.683)"/>
    <path id="Tracé_226" data-name="Tracé 226" class="cls-6" d="M692.733,353.031s1.6,9.443-2.507,12.292c-3.969,2.758-33.518,60.86-35.356,64.487.744-5.582,1.245-9.092,1.245-9.092l9.351-34.729s11.5-29.306,15.769-37.863S702.7,320.374,702.7,320.374c2.131-1.354,5.532,3.426,8.064,7.78C706.948,336.084,698.984,351.076,692.733,353.031Z" transform="translate(-123.847 485.543)"/>
    <path id="Tracé_227" data-name="Tracé 227" class="cls-10" d="M691.88,352.181s1.6,9.443-2.507,12.292S655.863,425.325,654,428.952c.744-5.574,1.245-9.083,1.245-9.083l9.351-34.738s11.49-29.306,15.769-37.855,21.459-27.752,21.459-27.752c2.131-1.354,5.54,3.426,8.072,7.78C706.094,335.226,698.122,350.226,691.88,352.181Z" transform="translate(-123.704 485.683)"/>
    <path id="Tracé_228" data-name="Tracé 228" class="cls-23" d="M676.155,421.862l-10.053,52.3v.008l-.961,5.005v.008l-2.164,11.256-9.234-1.955-4.3-.911-59.557-12.618-4.379-.928-9.994-2.114,1.955-12.986.811-5.4,7.212-47.883Z" transform="translate(-65.587 501.33)"/>
    <path id="Tracé_229" data-name="Tracé 229" class="cls-18" d="M679.761,511.92s-23.691,8.549-18.526,18.7,38.3-7.838,38.3-7.838Z" transform="translate(-124.772 454.023)"/>
    <path id="Tracé_230" data-name="Tracé 230" class="cls-6" d="M703.8,599.1c0,.71.894,9.8,4.454,13S703.8,599.1,703.8,599.1Z" transform="translate(-131.888 439.695)"/>
    <path id="Tracé_231" data-name="Tracé 231" class="cls-6" d="M675.24,637.68s4.27,11.758,21.192,16.571S675.24,637.68,675.24,637.68Z" transform="translate(-127.195 433.354)"/>
    <path id="Tracé_232" data-name="Tracé 232" class="cls-6" d="M711.911,278.308A27.785,27.785,0,0,1,697.98,302.4a14.79,14.79,0,0,1-4.178-3.485c-1.212-1.471-2.156-3.476-1.429-5.231.585-1.412,2.131-2.306,2.507-3.769a5.548,5.548,0,0,0-.134-2.691c-.309-1.379-.6-2.758-.9-4.128-.259-1.17-.719-2.549-1.88-2.833s-2.131.685-3.042,1.4c-2.231,1.763-6.51,2.958-9.192,1.513s-1.93-6.284-2.365-8.9a1.554,1.554,0,0,0-.585-1.178,2.44,2.44,0,0,0-1.212-.084,3.489,3.489,0,0,1-3.025-2.682,23.091,23.091,0,0,1-.485-4.3,4.8,4.8,0,0,0-1.922-3.719,5.942,5.942,0,0,0-3.167-.518l-5.24.058a27.794,27.794,0,0,1,50.139,16.479Z" transform="translate(-124.974 496.974)"/>
    <path id="Tracé_233" data-name="Tracé 233" class="cls-22" d="M688.711,280.193c.911-.719,1.914-1.671,3.042-1.4s1.613,1.671,1.872,2.824l.9,4.12a5.6,5.6,0,0,1,.142,2.7c-.426,1.471-1.964,2.356-2.557,3.769-.727,1.755.226,3.76,1.429,5.223a15.041,15.041,0,0,0,8.6,5.139,6.317,6.317,0,0,0,2.682.059c1.989-.46,3.343-2.29,4.412-4,5.524-8.607,10.278-18.042,11.248-28.22a18.1,18.1,0,0,0-.284-6.226,20.89,20.89,0,0,0-1.905-4.554,36.774,36.774,0,0,0-5.373-8.131c-3.8-4.095-9.05-6.61-14.44-8.1a48.9,48.9,0,0,0-18.643-1.462c-1.671.192-3.276.468-4.922.577a49.526,49.526,0,0,1-6.2-.1l-12.3-.735c-.7,1.429,0,3.125.836,4.462s1.872,2.724,1.805,4.312-1.195,2.841-2.064,4.178-1.529,3.067-.66,4.37,2.641,1.387,4.178,1.371l6.2-.067a5.925,5.925,0,0,1,3.15.543,4.814,4.814,0,0,1,1.922,3.719,24.6,24.6,0,0,0,.485,4.3,3.477,3.477,0,0,0,3.025,2.682,2.256,2.256,0,0,1,1.212.092,1.538,1.538,0,0,1,.585,1.17c.434,2.616-.368,7.446,2.365,8.9S686.48,281.957,688.711,280.193Z" transform="translate(-124.019 498.448)"/>
    <path id="Tracé_234" data-name="Tracé 234" class="cls-6" d="M727.077,353.455a13.621,13.621,0,0,0-14.331,9.15c-3.343,9.518-8.916,26.691-7.521,33.476,1.964,9.618,4.278,25.654,4.278,25.654s10.153,5.85,5.014,11.749-6.593,14.256-6.593,14.256-6.593,2.85-8.014,8.908-11.047,14.423-11.047,14.423L674.44,485.5s23.866,24.234,28.679,25.471L717.9,493.693l17.457-23.156L750.5,454.66s3.56-8.357,1.78-24.234-8.733-30.994-8.733-30.994l.535-5.348S745.721,355.77,727.077,353.455Z" transform="translate(-127.063 480.08)"/>
    <path id="Tracé_235" data-name="Tracé 235" class="cls-10" d="M728.779,353.455a13.621,13.621,0,0,0-14.315,9.15c-3.343,9.518-8.916,26.691-7.521,33.476,1.955,9.618,4.27,25.654,4.27,25.654s10.153,5.849,5.014,11.749-6.585,14.256-6.585,14.256-6.593,2.85-8.022,8.908-11.039,14.423-11.039,14.423L676.15,485.5s23.866,24.234,28.679,25.471l14.782-17.281,17.415-23.156,15.142-15.877s3.568-8.357,1.78-24.234-8.724-30.994-8.724-30.994l.535-5.348S747.422,355.77,728.779,353.455Z" transform="translate(-127.344 480.08)"/>
    <path id="Tracé_236" data-name="Tracé 236" class="cls-6" d="M721.28,418.34s15.142,18.518,21.56,14.423S721.28,418.34,721.28,418.34Z" transform="translate(-134.761 469.404)"/>
    <path id="Tracé_237" data-name="Tracé 237" class="cls-6" d="M728.1,401.28c1.6.535,14.791,18.886,21.56,16.713S728.1,401.28,728.1,401.28Z" transform="translate(-135.882 472.207)"/>
    <path id="Tracé_238" data-name="Tracé 238" class="cls-6" d="M732.58,439s.894,10.512,11.758,9.083S732.58,439,732.58,439Z" transform="translate(-136.619 466.008)"/>
    <path id="Tracé_239" data-name="Tracé 239" class="cls-6" d="M619.865,301.83l-5.875,13.095,7.337-7.446Z" transform="translate(-71.911 518.393)"/>
    <path id="Tracé_240" data-name="Tracé 240" class="cls-21" d="M619.865,300.98l-5.875,13.095,7.337-7.446Z" transform="translate(-71.911 518.533)"/>
    <path id="Tracé_241" data-name="Tracé 241" class="cls-24" d="M590.268,484.376l-4.379-.928-8.039-15.1.811-5.4Z" transform="translate(-65.971 491.913)"/>
    <path id="Tracé_242" data-name="Tracé 242" class="cls-24" d="M680.643,487.65l-.961,5.006v.008l-11.4,9.3-4.3-.911Z" transform="translate(-80.127 487.853)"/>
    <path id="Tracé_243" data-name="Tracé 243" class="cls-6" d="M506.209,435.465c-2.206.368-4.345.7-6.3.953-10.863,1.429-36.7-11.4-36.7-11.4s-31.529-26.365-40.612-51.3,10.863-28.679,10.863-28.679c7.521-4.279,23.874,7.655,26.189,9.618s4.278,6.944,4.095,10.153,5.348,7.3,5.348,7.3,9.443,16.387,11.758,18.167,2.85,3.384,3.56,6.418,6.944,5.524,9.618,5.34,5.85.894,5.85,2.315c0,1.145,2.616,1.713,4.763,1.9C505.273,415.384,505.9,427.35,506.209,435.465Z" transform="translate(-85.282 481.602)"/>
    <path id="Tracé_244" data-name="Tracé 244" class="cls-6" d="M506.389,432.3c-1.671.267-3.276.51-4.78.71-10.863,1.429-36.693-11.4-36.693-11.4s-31.529-26.365-40.612-51.3,10.863-28.679,10.863-28.679c7.521-4.279,23.866,7.655,26.181,9.618s4.279,6.944,4.1,10.153,5.34,7.3,5.34,7.3,9.443,16.387,11.758,18.167,2.85,3.384,3.568,6.418,6.944,5.515,9.618,5.34,5.849.894,5.849,2.315c0,.836,1.487,1.4,3.142,1.671.067.969.125,2,.2,3.067C505.479,413.9,506.047,424.375,506.389,432.3Z" transform="translate(-85.563 482.162)"/>
    <path id="Tracé_245" data-name="Tracé 245" class="cls-6" d="M571.878,428.84l-.677,16.011h-.727l-1.5-.836.184-13.8A24.226,24.226,0,0,1,571.878,428.84Z" transform="translate(-109.729 467.678)"/>
    <path id="Tracé_246" data-name="Tracé 246" class="cls-14" d="M433.457,343.33s-19.947,3.744-10.863,28.679,40.612,51.309,40.612,51.309,25.83,12.819,36.7,11.4,27.426-5.164,29.565-4.629,16.571.535,16.571.535l.71-16.713-16.713-.894-8.549-1.78s-3.033-2.507-4.813-2.139-5.515-2.139-5.515-2.139-2.858-2.315-5.014-2.315-6.234-.535-6.234-1.955-3.209-2.507-5.85-2.315-8.95-2.315-9.685-5.382-1.245-4.63-3.56-6.409S469.064,370.4,469.064,370.4s-5.524-4.095-5.348-7.3-1.78-8.2-4.095-10.161S440.928,339.06,433.457,343.33Z" transform="translate(-85.282 481.882)"/>
    <path id="Tracé_247" data-name="Tracé 247" class="cls-6" d="M496.275,412.15s-7.663,7.663-5.707,9.083Z" transform="translate(-96.791 470.421)"/>
    <path id="Tracé_248" data-name="Tracé 248" class="cls-6" d="M505.734,419.4s-9.978,7.663-7.3,8.2S505.734,419.4,505.734,419.4Z" transform="translate(-98.061 469.229)"/>
    <path id="Tracé_249" data-name="Tracé 249" class="cls-6" d="M487,433c1.429.719,22.621,13.37,30.643,13.187Z" transform="translate(-96.257 466.994)"/>
    <path id="Tracé_250" data-name="Tracé 250" class="cls-6" d="M482.241,328.2s-3.744,12.292-5.173,12.292c-1.12,0-19.922-15.225-27.769-21.627l.343-.284s.71-5.524,3.56-8.356S482.241,328.2,482.241,328.2Z" transform="translate(-90.061 487.216)"/>
    <path id="Tracé_251" data-name="Tracé 251" class="cls-14" d="M481.381,326.493s-3.735,12.292-5.164,12.292c-1.128,0-19.93-15.226-27.777-21.627l.343-.284s.719-5.524,3.568-8.356S481.381,326.493,481.381,326.493Z" transform="translate(-89.919 487.497)"/>
    <g id="Groupe_4" data-name="Groupe 4" class="cls-25" transform="translate(341.014 733.024)">
      <path id="Tracé_252" data-name="Tracé 252" d="M427.49,282.54h0c2.507,5.724,9.409,8.5,13.412,13.061C438.521,289.994,431.56,287.245,427.49,282.54Z" transform="translate(-427.49 -241.301)"/>
      <path id="Tracé_253" data-name="Tracé 253" d="M455.9,297.37a6.006,6.006,0,0,1-5.482,2.8,16,16,0,0,1-5.5-1.4,10.689,10.689,0,0,1,1.421,3.025,17.465,17.465,0,0,0,6.217,1.671,5.946,5.946,0,0,0,5.482-2.8c1.6-3.05-.067-5.657-2.014-8.122A5.306,5.306,0,0,1,455.9,297.37Z" transform="translate(-430.355 -242.944)"/>
      <path id="Tracé_254" data-name="Tracé 254" d="M487.932,245.733c-.359-1.6-1.579-2.866-2.206-4.379a27.328,27.328,0,0,1-.911-3.577,11.082,11.082,0,0,0-2.566-4.588,10.659,10.659,0,0,1,.426,1.262,28.73,28.73,0,0,0,.936,3.593c.627,1.513,1.847,2.774,2.206,4.379a4.538,4.538,0,0,1-3.343,5.231c-3.092.677-6.618-2-9.276-.276-1.63,1.045-2.005,3.226-2.223,5.148q-.56,5.014-1.136,9.969a11.949,11.949,0,0,1-.735,3.426c-1.312,3.008-4.914,4.421-8.2,4.37a4.922,4.922,0,0,1-3.526-1.17,23.287,23.287,0,0,0-1.529-1.939c-4.178-3.51-5.448,5.072-4.345,7.521a15.145,15.145,0,0,0,2.039,3.067c-.919-2.758.368-10.7,4.446-7.3a21.577,21.577,0,0,1,1.521,1.939,4.955,4.955,0,0,0,3.535,1.17c3.284.05,6.886-1.362,8.2-4.37a11.952,11.952,0,0,0,.735-3.435q.568-5.014,1.136-9.961c.217-1.922.593-4.1,2.214-5.148,2.666-1.721,6.192.953,9.284.267A4.529,4.529,0,0,0,487.932,245.733Z" transform="translate(-431.375 -233.19)"/>
    </g>
    <path id="Tracé_255" data-name="Tracé 255" class="cls-6" d="M706.564,300.475a6.46,6.46,0,0,1-2.682-.067,15.042,15.042,0,0,1-8.59-5.131c-1.212-1.471-2.164-3.476-1.429-5.231.585-1.412,2.123-2.3,2.507-3.769a5.6,5.6,0,0,0-.142-2.7l-.9-4.12c-.259-1.17-.71-2.549-1.872-2.825s-2.131.677-3.042,1.4c-2.231,1.763-6.518,2.967-9.192,1.513s-1.93-6.284-2.365-8.9a1.563,1.563,0,0,0-.585-1.17,2.382,2.382,0,0,0-1.22-.092,3.5,3.5,0,0,1-3.025-2.682,23.727,23.727,0,0,1-.476-4.3,4.822,4.822,0,0,0-1.93-3.719,6.009,6.009,0,0,0-3.15-.543l-6.2.067c-1.529,0-3.343-.1-4.178-1.37s-.217-3.075.66-4.37,1.989-2.582,2.064-4.178-.961-2.975-1.8-4.312a7.729,7.729,0,0,1-1.053-2.39l-1.78-.109c-.694,1.421,0,3.117.836,4.462s1.88,2.724,1.8,4.3-1.187,2.85-2.064,4.178-1.521,3.067-.652,4.37,2.632,1.4,4.178,1.379l6.2-.075a6,6,0,0,1,3.15.552,4.8,4.8,0,0,1,1.93,3.719,23.08,23.08,0,0,0,.485,4.3,3.459,3.459,0,0,0,3.025,2.674,2.447,2.447,0,0,1,1.212.092,1.571,1.571,0,0,1,.585,1.178c.435,2.607-.368,7.446,2.365,8.9s6.994.251,9.192-1.513c.911-.719,1.922-1.671,3.05-1.4s1.613,1.671,1.863,2.824l.911,4.128a5.59,5.59,0,0,1,.134,2.7c-.418,1.462-1.964,2.357-2.549,3.76-.727,1.755.217,3.769,1.429,5.231a15.042,15.042,0,0,0,8.649,5.131,6.461,6.461,0,0,0,2.682.067,6.3,6.3,0,0,0,3.476-2.641A4.646,4.646,0,0,1,706.564,300.475Z" transform="translate(-123.981 498.473)"/>
    <ellipse id="Ellipse_14" data-name="Ellipse 14" class="cls-1" cx="20.198" cy="3.1" rx="20.198" ry="3.1" transform="translate(179.015 1161.802)"/>
    <ellipse id="Ellipse_15" data-name="Ellipse 15" class="cls-1" cx="20.198" cy="3.1" rx="20.198" ry="3.1" transform="translate(884.235 1081.196)"/>
    <ellipse id="Ellipse_16" data-name="Ellipse 16" class="cls-1" cx="58.495" cy="8.975" rx="58.495" ry="8.975" transform="translate(640.025 1200.25)"/>
    <ellipse id="Ellipse_17" data-name="Ellipse 17" class="cls-1" cx="45.626" cy="7.003" rx="45.626" ry="7.003" transform="translate(819.179 1164.201)"/>
    <ellipse id="Ellipse_18" data-name="Ellipse 18" class="cls-1" cx="77.373" cy="11.875" rx="77.373" ry="11.875" transform="translate(779.921 1229.105)"/>
    <ellipse id="Ellipse_19" data-name="Ellipse 19" class="cls-1" cx="58.495" cy="8.975" rx="58.495" ry="8.975" transform="translate(54.27 1242.451)"/>
    <path id="Tracé_256" data-name="Tracé 256" class="cls-23" d="M257.659,631.85s2.29,2.992-1.053,7.521-6.1,8.356-5.014,11.148c0,0,5.014-8.357,9.192-8.507S262.18,636.9,257.659,631.85Z" transform="translate(-57.527 434.313)"/>
    <path id="Tracé_257" data-name="Tracé 257" class="cls-6" d="M257.689,631.85a3.343,3.343,0,0,1,.468.936c4.011,4.713,6.142,9.1,2.29,9.192-3.585.1-7.889,6.518-8.916,8.139a3.093,3.093,0,0,0,.117.368s5.014-8.356,9.192-8.507S262.21,636.9,257.689,631.85Z" transform="translate(-57.557 434.313)"/>
    <path id="Tracé_258" data-name="Tracé 258" class="cls-26" d="M263.895,636.277c0,1.053-.125,1.905-.267,1.905s-.267-.836-.267-1.905.15-.552.292-.552S263.895,635.224,263.895,636.277Z" transform="translate(-59.501 433.696)"/>
    <path id="Tracé_259" data-name="Tracé 259" class="cls-26" d="M265.386,637.777c-.919.5-1.73.836-1.8.677s.618-.635,1.546-1.145.56-.134.627,0S266.313,637.267,265.386,637.777Z" transform="translate(-59.538 433.458)"/>
    <path id="Tracé_260" data-name="Tracé 260" class="cls-23" d="M243.43,631.85s-2.29,2.992,1.053,7.521,6.109,8.356,5.014,11.148c0,0-5.014-8.357-9.15-8.507S238.884,636.9,243.43,631.85Z" transform="translate(-55.381 434.313)"/>
    <path id="Tracé_261" data-name="Tracé 261" class="cls-6" d="M243.426,631.85a3.687,3.687,0,0,0-.468.936c-4.011,4.713-6.142,9.1-2.29,9.192,3.585.1,7.888,6.518,8.925,8.139a3.187,3.187,0,0,1-.125.368s-5.014-8.356-9.15-8.507S238.88,636.9,243.426,631.85Z" transform="translate(-55.378 434.313)"/>
    <path id="Tracé_262" data-name="Tracé 262" class="cls-26" d="M239.35,636.277c0,1.053.117,1.905.259,1.905s.267-.836.267-1.905-.15-.552-.292-.552S239.35,635.224,239.35,636.277Z" transform="translate(-55.555 433.696)"/>
    <path id="Tracé_263" data-name="Tracé 263" class="cls-26" d="M237.489,637.777c.928.5,1.73.836,1.805.677s-.627-.635-1.554-1.145-.56-.134-.627,0S236.562,637.267,237.489,637.777Z" transform="translate(-55.157 433.458)"/>
    <ellipse id="Ellipse_20" data-name="Ellipse 20" class="cls-1" cx="23.925" cy="3.668" rx="23.925" ry="3.668" transform="translate(170.166 1100.374)"/>
    <path id="Tracé_264" data-name="Tracé 264" class="cls-27" d="M261.564,649.075l-.117.936-.159,1.32-.067.552-.159,1.32-.075.551-.159,1.32L259,670.117c-.159,1.337-2.348,2.382-5.014,2.382h-9.476c-2.641,0-4.83-1.045-5.014-2.382l-1.83-15.042-.159-1.32-.067-.551-.167-1.32-.067-.552-.159-1.32-.117-.936c-.092-.76,1.095-1.4,2.591-1.4h19.462C260.469,647.68,261.656,648.315,261.564,649.075Z" transform="translate(-55.156 431.711)"/>
    <path id="Tracé_265" data-name="Tracé 265" class="cls-28" d="M207.361,614.76l-.159,1.32H183.119l-.159-1.32Z" transform="translate(-1.07 466.962)"/>
    <path id="Tracé_266" data-name="Tracé 266" class="cls-28" d="M207.18,617l-.159,1.32H183.4L183.23,617Z" transform="translate(-1.114 466.594)"/>
    <path id="Tracé_267" data-name="Tracé 267" class="cls-28" d="M207,619.24l-.167,1.32H183.669l-.159-1.32Z" transform="translate(-1.16 466.226)"/>
    <path id="Tracé_268" data-name="Tracé 268" class="cls-23" d="M1082.616,618s-2.858,13.3,9.852,14.875l.785-1.479S1083.4,622.128,1082.616,618Z" transform="translate(-194.103 436.589)"/>
    <path id="Tracé_269" data-name="Tracé 269" class="cls-23" d="M1098.069,629.967l-2.958.627-.292.067s-7.889-6.4-7.788-20.691a35.273,35.273,0,0,0,3.769,5.958C1093.924,620.065,1097.476,625.58,1098.069,629.967Z" transform="translate(-194.873 437.909)"/>
    <path id="Tracé_270" data-name="Tracé 270" class="cls-23" d="M1100.049,630.37a1.854,1.854,0,0,1-1.588.209c-7.588-1.771-5.014-26.5-5.014-26.5.418.192.836,3.343,2.624,7.4C1099.121,618.612,1102.489,628.581,1100.049,630.37Z" transform="translate(-195.859 438.877)"/>
    <path id="Tracé_271" data-name="Tracé 271" class="cls-23" d="M1119.011,618s.493,13.3-12.217,14.875l-.794-1.5S1118.225,622.128,1119.011,618Z" transform="translate(-197.991 436.589)"/>
    <path id="Tracé_272" data-name="Tracé 272" class="cls-23" d="M1114.575,610c.1,14.29-10.145,20.691-10.145,20.691l-.3-.067-2.95-.627c.585-4.387,4.178-9.9,7.262-14.039A32.148,32.148,0,0,1,1114.575,610Z" transform="translate(-197.199 437.904)"/>
    <path id="Tracé_273" data-name="Tracé 273" class="cls-23" d="M1103.733,629.084a4.612,4.612,0,0,1-1.671,1.3h0a3.255,3.255,0,0,1-.627.209c-1.863.435-2.507-.911-2.407-3.2.175-4.07,2.733-11.131,5.014-16.42a20.516,20.516,0,0,1,4.763-6.877S1108.688,623.335,1103.733,629.084Z" transform="translate(-196.844 438.875)"/>
    <path id="Tracé_274" data-name="Tracé 274" class="cls-23" d="M1101.306,593.7s-8.474,30.083-1.178,34.579S1103.177,596.357,1101.306,593.7Z" transform="translate(-196.539 440.583)"/>
    <path id="Tracé_275" data-name="Tracé 275" class="cls-6" d="M1082.616,618s-2.858,13.3,9.852,14.875l.785-1.479S1083.4,622.128,1082.616,618Z" transform="translate(-194.103 436.589)"/>
    <path id="Tracé_276" data-name="Tracé 276" class="cls-6" d="M1098.069,629.967l-2.958.627-.292.067s-7.889-6.4-7.788-20.691a35.273,35.273,0,0,0,3.769,5.958C1093.924,620.065,1097.476,625.58,1098.069,629.967Z" transform="translate(-194.873 437.909)"/>
    <path id="Tracé_277" data-name="Tracé 277" class="cls-6" d="M1100.049,630.37a1.854,1.854,0,0,1-1.588.209c-7.588-1.771-5.014-26.5-5.014-26.5.418.192.836,3.343,2.624,7.4C1099.121,618.612,1102.489,628.581,1100.049,630.37Z" transform="translate(-195.859 438.877)"/>
    <path id="Tracé_278" data-name="Tracé 278" class="cls-6" d="M1119.011,618s.493,13.3-12.217,14.875l-.794-1.5S1118.225,622.128,1119.011,618Z" transform="translate(-197.991 436.589)"/>
    <path id="Tracé_279" data-name="Tracé 279" class="cls-6" d="M1114.575,610c.1,14.29-10.145,20.691-10.145,20.691l-.3-.067-2.95-.627c.585-4.387,4.178-9.9,7.262-14.039A32.148,32.148,0,0,1,1114.575,610Z" transform="translate(-197.199 437.904)"/>
    <path id="Tracé_280" data-name="Tracé 280" class="cls-6" d="M1103.733,629.084a4.612,4.612,0,0,1-1.671,1.3h0a3.255,3.255,0,0,1-.627.209c-1.863.435-2.507-.911-2.407-3.2.175-4.07,2.733-11.131,5.014-16.42a20.516,20.516,0,0,1,4.763-6.877S1108.688,623.335,1103.733,629.084Z" transform="translate(-196.844 438.875)"/>
    <path id="Tracé_281" data-name="Tracé 281" class="cls-6" d="M1101.306,593.7s-8.474,30.083-1.178,34.579S1103.177,596.357,1101.306,593.7Z" transform="translate(-196.539 440.583)"/>
    <path id="Tracé_282" data-name="Tracé 282" class="cls-23" d="M1082.656,618s-1.671,13.3,11.03,14.875l.786-1.479S1083.441,622.128,1082.656,618Z" transform="translate(-194.143 436.589)"/>
    <path id="Tracé_283" data-name="Tracé 283" class="cls-23" d="M1099.242,629.972l-2.958.627-.292.067s-9.067-6.4-8.991-20.666c0,0,2.323,2.507,4.947,5.958C1095.1,620.07,1098.649,625.585,1099.242,629.972Z" transform="translate(-194.869 437.904)"/>
    <path id="Tracé_284" data-name="Tracé 284" class="cls-6" d="M1100.22,631.139l-2.958.627c-2.8-2.457-3.911-8.875-4.312-14.666C1096.075,621.236,1099.627,626.752,1100.22,631.139Z" transform="translate(-195.846 436.737)"/>
    <path id="Tracé_285" data-name="Tracé 285" class="cls-23" d="M1101.3,630.37a1.872,1.872,0,0,1-1.6.209c-7.588-1.771-6.2-26.5-6.2-26.5.418.192,2.056,3.343,3.8,7.4C1100.37,618.612,1103.729,628.581,1101.3,630.37Z" transform="translate(-195.921 438.877)"/>
    <path id="Tracé_286" data-name="Tracé 286" class="cls-23" d="M1119.246,618s1.671,13.3-11.031,14.875l-.785-1.479S1118.46,622.128,1119.246,618Z" transform="translate(-198.226 436.589)"/>
    <path id="Tracé_287" data-name="Tracé 287" class="cls-23" d="M1114.807,610c.1,14.29-8.967,20.691-8.967,20.691l-.292-.067L1102.59,630c.585-4.387,4.178-9.9,7.27-14.039C1112.484,612.507,1114.807,610,1114.807,610Z" transform="translate(-197.431 437.904)"/>
    <path id="Tracé_288" data-name="Tracé 288" class="cls-6" d="M1109.86,617.1c-.384,5.4-1.37,11.34-3.769,14.114a4.255,4.255,0,0,1-.543.552l-2.958-.627C1103.175,626.752,1106.735,621.236,1109.86,617.1Z" transform="translate(-197.431 436.737)"/>
    <path id="Tracé_289" data-name="Tracé 289" class="cls-23" d="M1105.143,629.084a4.522,4.522,0,0,1-1.671,1.3h0a3.348,3.348,0,0,1-.619.209c-1.872.435-2.507-.911-2.415-3.2.184-4.07,2.741-11.131,5.014-16.42,1.671-3.8,3.184-6.685,3.585-6.877C1109.037,604.082,1110.1,623.335,1105.143,629.084Z" transform="translate(-197.076 438.875)"/>
    <path id="Tracé_290" data-name="Tracé 290" class="cls-6" d="M1101.976,631.826a2.006,2.006,0,0,1-1.2-.385c-3.568-2.223-3.643-10.563-2.791-18.5C1101.048,620.068,1104.408,630.037,1101.976,631.826Z" transform="translate(-196.6 437.421)"/>
    <path id="Tracé_291" data-name="Tracé 291" class="cls-6" d="M1105.145,630.437c-.41.894-.961,1.362-1.671,1.3h0a2.25,2.25,0,0,1-1.011-.384,5.4,5.4,0,0,1-2.022-2.607c.184-4.07,2.741-11.131,5.014-16.421C1106.273,619.649,1106.549,627.42,1105.145,630.437Z" transform="translate(-197.077 437.522)"/>
    <path id="Tracé_292" data-name="Tracé 292" class="cls-23" d="M1101.483,593.7s-7.287,30.083,0,34.579S1103.355,596.357,1101.483,593.7Z" transform="translate(-196.717 440.583)"/>
    <path id="Tracé_293" data-name="Tracé 293" class="cls-29" d="M1058.782,597.61H1028.44v5.022h4.629l.117.593,1.855,9.752h17.641l1.855-9.752.109-.593h4.136Z" transform="translate(-140.027 469.781)"/>
    <path id="Tracé_294" data-name="Tracé 294" class="cls-6" d="M1058.782,597.61H1028.44v5.022h4.629l.117.593,1.855,9.752h17.641l1.855-9.752.109-.593h4.136Z" transform="translate(-140.027 469.781)"/>
    <path id="Tracé_295" data-name="Tracé 295" class="cls-29" d="M1057.29,601.14l-.51,2.666-1.855,9.752h-17.641l-1.855-9.752-.51-2.666Z" transform="translate(-141.092 469.201)"/>
    <path id="Tracé_296" data-name="Tracé 296" class="cls-6" d="M1057.29,601.14l-.51,2.666H1035.43l-.51-2.666Z" transform="translate(-141.092 469.201)"/>
    <rect id="Rectangle_29" data-name="Rectangle 29" class="cls-29" width="30.342" height="5.022" transform="translate(889.591 1067.391)"/>
    <path id="Tracé_297" data-name="Tracé 297" class="cls-23" d="M183.245,734.937a14.575,14.575,0,0,0-1.905,3.593c-.117.309-.234.669-.351,1.011a3.656,3.656,0,0,0-.66-.234,9.2,9.2,0,0,0-2.983-.251c0-.393.05-.836.059-1.228.125-4.4-.393-10.537-4.6-7.939-4.028,2.507-1.153,6.685,1.446,9.359.226.234.451.451.669.66-2.373,1.671-2.824,5.624-3.217,9.727s-3.877,8.59-6.192,11.139c-.234.259-.443.493-.652.71a8.482,8.482,0,0,0-6.727-1.73c-.092-.359-.2-.735-.309-1.128-1.872-6.76-5.758-18.468-10.713-21.033l.652-.836c2.106-2.749,4.479-6.844.978-7.888s-3.819,3.543-3.627,6.986q.05.652.1,1.228a5.123,5.123,0,0,0-3.66,1.788l-.543-.643c-2.841-3.343-8.047-8.666-9.627-4.646-1.471,3.744,3.117,8.607,6.343,11.423l.2.176c-2.164,8.783,7.287,15.944,12.376,19.078l.66.4c-7.019,8.273-11.356,23.782-11.356,23.782l19.654,3.51s13.036-11.248,11.365-21.81h.134c13.028-2.607,15.986-16.5,13.955-24.744l.234-.092a14.749,14.749,0,0,0,6.033-4.562C194.626,735.689,187.005,729.973,183.245,734.937Z" transform="translate(-37.764 418.392)"/>
    <path id="Tracé_298" data-name="Tracé 298" class="cls-6" d="M183.245,734.937a14.575,14.575,0,0,0-1.905,3.593c-.117.309-.234.669-.351,1.011a3.656,3.656,0,0,0-.66-.234,9.2,9.2,0,0,0-2.983-.251c0-.393.05-.836.059-1.228.125-4.4-.393-10.537-4.6-7.939-4.028,2.507-1.153,6.685,1.446,9.359.226.234.451.451.669.66-2.373,1.671-2.824,5.624-3.217,9.727s-3.877,8.59-6.192,11.139c-.234.259-.443.493-.652.71a8.482,8.482,0,0,0-6.727-1.73c-.092-.359-.2-.735-.309-1.128-1.872-6.76-5.758-18.468-10.713-21.033l.652-.836c2.106-2.749,4.479-6.844.978-7.888s-3.819,3.543-3.627,6.986q.05.652.1,1.228a5.123,5.123,0,0,0-3.66,1.788l-.543-.643c-2.841-3.343-8.047-8.666-9.627-4.646-1.471,3.744,3.117,8.607,6.343,11.423l.2.176c-2.164,8.783,7.287,15.944,12.376,19.078l.66.4c-7.019,8.273-11.356,23.782-11.356,23.782l19.654,3.51s13.036-11.248,11.365-21.81h.134c13.028-2.607,15.986-16.5,13.955-24.744l.234-.092a14.749,14.749,0,0,0,6.033-4.562C194.626,735.689,187.005,729.973,183.245,734.937Z" transform="translate(-37.764 418.392)"/>
    <path id="Tracé_299" data-name="Tracé 299" class="cls-23" d="M144.356,741.328l-2.3,6.685s-1.279-.9-2.891-2.323c-3.226-2.816-7.813-7.68-6.343-11.423,1.579-4.02,6.785,1.287,9.627,4.646C143.6,740.25,144.356,741.328,144.356,741.328Z" transform="translate(-38 417.717)"/>
    <path id="Tracé_300" data-name="Tracé 300" class="cls-23" d="M151.951,736.77a31.858,31.858,0,0,1-2.24,2.641,35.275,35.275,0,0,1-.409-3.543c-.192-3.443.175-8.014,3.627-6.986S154.057,734.02,151.951,736.77Z" transform="translate(-40.748 418.389)"/>
    <path id="Tracé_301" data-name="Tracé 301" class="cls-23" d="M186.7,737.936c-.067,2.214-.284,3.986-.284,3.986a29.159,29.159,0,0,1-2.866-2.565c-2.6-2.7-5.474-6.861-1.446-9.359C186.268,727.39,186.786,733.532,186.7,737.936Z" transform="translate(-45.818 418.284)"/>
    <path id="Tracé_302" data-name="Tracé 302" class="cls-23" d="M202.083,741.576a14.75,14.75,0,0,1-6.033,4.563,18.049,18.049,0,0,1-2.022.735l-2.707-3.8a26.887,26.887,0,0,1,1.12-3.693,14.572,14.572,0,0,1,1.905-3.593C198.089,730.821,205.727,736.537,202.083,741.576Z" transform="translate(-47.661 417.544)"/>
    <path id="Tracé_303" data-name="Tracé 303" class="cls-6" d="M143.754,740.11c1.145,1.337,1.905,2.373,1.905,2.373l-2.3,6.685s-1.279-.9-2.891-2.323a13.119,13.119,0,0,1,2.59-5.908C143.286,740.661,143.528,740.377,143.754,740.11Z" transform="translate(-39.304 416.52)"/>
    <path id="Tracé_304" data-name="Tracé 304" class="cls-6" d="M151.959,738.172a31.871,31.871,0,0,1-2.24,2.641,35.273,35.273,0,0,1-.409-3.543A4.621,4.621,0,0,1,151.959,738.172Z" transform="translate(-40.756 416.986)"/>
    <path id="Tracé_305" data-name="Tracé 305" class="cls-23" d="M161.777,765.117l-5.716,2.507s-1.245-.6-3.042-1.721c-6.008-3.693-18.083-12.994-10.028-23.958s14.849,8.7,17.549,18.317C161.351,763.187,161.777,765.117,161.777,765.117Z" transform="translate(-39.277 416.749)"/>
    <path id="Tracé_306" data-name="Tracé 306" class="cls-6" d="M184.18,741.041a4.7,4.7,0,0,1,3.15-1.421c-.067,2.215-.284,3.986-.284,3.986A29.178,29.178,0,0,1,184.18,741.041Z" transform="translate(-46.487 416.6)"/>
    <path id="Tracé_307" data-name="Tracé 307" class="cls-6" d="M196.07,747.22a18.026,18.026,0,0,1-2.022.735l-2.708-3.8a26.884,26.884,0,0,1,1.12-3.694C194.19,741.479,195.476,744.02,196.07,747.22Z" transform="translate(-47.664 416.462)"/>
    <path id="Tracé_308" data-name="Tracé 308" class="cls-23" d="M177.74,772.15c-.309.067-.635.125-.961.175-19.161,2.908-6.318-7.429-6.318-7.429s.836-.836,2.031-2.1c2.315-2.549,5.791-7.011,6.192-11.139.6-6.209,1.3-12.033,8.624-10.329C194.5,743.019,195.882,768.514,177.74,772.15Z" transform="translate(-43.54 416.368)"/>
    <rect id="Rectangle_30" data-name="Rectangle 30" class="cls-30" width="36.61" height="9.627" transform="translate(97.231 1236.225)"/>
    <rect id="Rectangle_31" data-name="Rectangle 31" class="cls-30" width="47.832" height="33.593" transform="translate(91.414 1204.938)"/>
    <rect id="Rectangle_32" data-name="Rectangle 32" class="cls-6" width="36.61" height="9.627" transform="translate(97.231 1236.225)"/>
    <rect id="Rectangle_33" data-name="Rectangle 33" class="cls-6" width="47.832" height="33.593" transform="translate(91.414 1204.938)"/>
    <rect id="Rectangle_34" data-name="Rectangle 34" class="cls-30" width="36.61" height="9.627" transform="translate(99.637 1236.225)"/>
    <path id="Tracé_309" data-name="Tracé 309" class="cls-6" d="M163.041,764.51c.836,2.875,1.237,4.847,1.237,4.847l-5.716,2.507s-1.245-.6-3.042-1.721C157.76,767.309,160.283,765.17,163.041,764.51Z" transform="translate(-41.777 412.51)"/>
    <path id="Tracé_310" data-name="Tracé 310" class="cls-6" d="M177.74,776.431c-.309.067-.635.125-.961.176-19.161,2.908-6.318-7.429-6.318-7.429s.836-.836,2.031-2.1C176.068,769.946,177.548,773.172,177.74,776.431Z" transform="translate(-43.54 412.087)"/>
    <path id="Tracé_311" data-name="Tracé 311" class="cls-23" d="M142.72,794.525s10.73-38.44,25.78-26.582-6.125,30.083-6.125,30.083Z" transform="translate(-39.673 412.318)"/>
    <ellipse id="Ellipse_21" data-name="Ellipse 21" class="cls-6" cx="1.203" cy="1.203" rx="1.203" ry="1.203" transform="translate(107.258 1163.516)"/>
    <ellipse id="Ellipse_22" data-name="Ellipse 22" class="cls-6" cx="1.203" cy="1.203" rx="1.203" ry="1.203" transform="translate(107.158 1169.131)"/>
    <ellipse id="Ellipse_23" data-name="Ellipse 23" class="cls-6" cx="1.203" cy="1.203" rx="1.203" ry="1.203" transform="translate(142.063 1164.619)"/>
    <ellipse id="Ellipse_24" data-name="Ellipse 24" class="cls-6" cx="1.203" cy="1.203" rx="1.203" ry="1.203" transform="translate(113.985 1193.406)"/>
    <ellipse id="Ellipse_25" data-name="Ellipse 25" class="cls-6" cx="1.203" cy="1.203" rx="1.203" ry="1.203" transform="translate(139.556 1173.944)"/>
    <ellipse id="Ellipse_26" data-name="Ellipse 26" class="cls-6" cx="1.203" cy="1.203" rx="1.203" ry="1.203" transform="translate(127.122 1186.387)"/>
    <ellipse id="Ellipse_27" data-name="Ellipse 27" class="cls-6" cx="1.203" cy="1.203" rx="1.203" ry="1.203" transform="translate(111.37 1165.922)"/>
    <ellipse id="Ellipse_28" data-name="Ellipse 28" class="cls-6" cx="1.203" cy="1.203" rx="1.203" ry="1.203" transform="translate(138.754 1168.229)"/>
    <ellipse id="Ellipse_29" data-name="Ellipse 29" class="cls-6" cx="1.203" cy="1.203" rx="1.203" ry="1.203" transform="translate(134.643 1177.554)"/>
    <ellipse id="Ellipse_30" data-name="Ellipse 30" class="cls-6" cx="1.203" cy="1.203" rx="1.203" ry="1.203" transform="translate(122.008 1192.504)"/>
    <ellipse id="Ellipse_31" data-name="Ellipse 31" class="cls-6" cx="1.203" cy="1.203" rx="1.203" ry="1.203" transform="translate(119.4 1186.588)"/>
    <ellipse id="Ellipse_32" data-name="Ellipse 32" class="cls-6" cx="1.203" cy="1.203" rx="1.203" ry="1.203" transform="translate(113.175 1173.242)"/>
    <rect id="Rectangle_35" data-name="Rectangle 35" class="cls-6" width="36.61" height="3.518" transform="translate(99.637 1236.225)"/>
    <rect id="Rectangle_36" data-name="Rectangle 36" class="cls-30" width="47.832" height="33.593" transform="translate(93.821 1204.938)"/>
    <ellipse id="Ellipse_33" data-name="Ellipse 33" class="cls-6" cx="1.203" cy="1.203" rx="1.203" ry="1.203" transform="translate(123.612 1197.919)"/>
    <ellipse id="Ellipse_34" data-name="Ellipse 34" class="cls-6" cx="1.203" cy="1.203" rx="1.203" ry="1.203" transform="translate(116.392 1199.423)"/>
    <circle id="Ellipse_35" data-name="Ellipse 35" class="cls-1" cx="8.741" cy="8.741" r="8.741" transform="translate(62.041 602.713)"/>
    <ellipse id="Ellipse_36" data-name="Ellipse 36" class="cls-1" cx="11.699" cy="11.699" rx="11.699" ry="11.699" transform="translate(898.549 874.758)"/>
    <circle id="Ellipse_37" data-name="Ellipse 37" class="cls-1" cx="8.54" cy="8.54" r="8.54" transform="translate(924.262 852.847)"/>
    <ellipse id="Ellipse_38" data-name="Ellipse 38" class="cls-1" cx="11.699" cy="11.699" rx="11.699" ry="11.699" transform="translate(74.125 568)"/>
    <ellipse id="Ellipse_39" data-name="Ellipse 39" class="cls-1" cx="11.699" cy="11.699" rx="11.699" ry="11.699" transform="translate(29 621.481)"/>
  </g>
</svg>
