<svg xmlns="http://www.w3.org/2000/svg" xmlns:xlink="http://www.w3.org/1999/xlink" viewBox="0 0 861.965 680.868">
  <defs>
    <style>
      .cls-1 {
        fill: url(#linear-gradient);
      }

      .cls-2 {
        fill: #fff;
      }

      .cls-3, .cls-4, .cls-5 {
        fill: #6c63ff;
      }

      .cls-4 {
        opacity: 0.5;
      }

      .cls-5 {
        opacity: 0.2;
      }

      .cls-6 {
        fill: #69f0ae;
      }

      .cls-7 {
        fill: url(#linear-gradient-4);
      }

      .cls-8 {
        fill: #2196f3;
      }

      .cls-9 {
        fill: url(#linear-gradient-7);
      }

      .cls-10 {
        fill: url(#linear-gradient-8);
      }

      .cls-11 {
        fill: url(#linear-gradient-9);
      }

      .cls-12 {
        fill: url(#linear-gradient-10);
      }

      .cls-13 {
        fill: url(#linear-gradient-11);
      }

      .cls-14 {
        fill: url(#linear-gradient-12);
      }

      .cls-15 {
        fill: url(#linear-gradient-13);
      }

      .cls-16 {
        fill: url(#linear-gradient-14);
      }

      .cls-17 {
        fill: url(#linear-gradient-15);
      }

      .cls-18 {
        fill: url(#linear-gradient-16);
      }

      .cls-19 {
        fill: url(#linear-gradient-17);
      }
    </style>
    <linearGradient id="linear-gradient" x1="0.5" y1="1" x2="0.5" gradientUnits="objectBoundingBox">
      <stop offset="0" stop-color="gray" stop-opacity="0.251"/>
      <stop offset="0.54" stop-color="gray" stop-opacity="0.122"/>
      <stop offset="1" stop-color="gray" stop-opacity="0.102"/>
    </linearGradient>
    <linearGradient id="linear-gradient-4" y2="-0.001" xlink:href="#linear-gradient"/>
    <linearGradient id="linear-gradient-7" x1="29.773" y1="26.262" x2="29.773" y2="25.263" xlink:href="#linear-gradient"/>
    <linearGradient id="linear-gradient-8" y1="0.999" xlink:href="#linear-gradient"/>
    <linearGradient id="linear-gradient-9" x1="35.813" y1="30.815" x2="35.813" y2="29.815" xlink:href="#linear-gradient"/>
    <linearGradient id="linear-gradient-10" x1="39.503" y1="24.82" x2="39.503" y2="23.82" xlink:href="#linear-gradient"/>
    <linearGradient id="linear-gradient-11" x1="30.785" y1="19.69" x2="30.785" y2="18.69" xlink:href="#linear-gradient"/>
    <linearGradient id="linear-gradient-12" x1="25.655" y1="10.971" x2="25.655" y2="9.972" xlink:href="#linear-gradient"/>
    <linearGradient id="linear-gradient-13" x1="25.656" y1="0.713" x2="25.656" y2="-0.287" xlink:href="#linear-gradient"/>
    <linearGradient id="linear-gradient-14" x1="40.017" y1="-13.391" x2="40.017" y2="-14.391" xlink:href="#linear-gradient"/>
    <linearGradient id="linear-gradient-15" x1="50.274" y1="-13.135" x2="50.274" y2="-14.134" xlink:href="#linear-gradient"/>
    <linearGradient id="linear-gradient-16" x1="58.481" y1="-8.006" x2="58.481" y2="-9.006" xlink:href="#linear-gradient"/>
    <linearGradient id="linear-gradient-17" x1="63.609" y1="0.2" x2="63.609" y2="-0.799" xlink:href="#linear-gradient"/>
  </defs>
  <g id="undraw_calendar_dutt" transform="translate(-529.035 -3652.173)">
    <rect id="Rectangle_37" data-name="Rectangle 37" class="cls-1" width="825.232" height="545.685" transform="translate(565.768 3652.173)"/>
    <rect id="Rectangle_38" data-name="Rectangle 38" class="cls-2" width="808.728" height="464.709" transform="translate(572.989 3716.644)"/>
    <rect id="Rectangle_39" data-name="Rectangle 39" class="cls-3" width="808.728" height="53.124" transform="translate(572.989 3663.52)"/>
    <rect id="Rectangle_40" data-name="Rectangle 40" class="cls-1" width="788.097" height="405.395" transform="translate(584.336 3750.169)"/>
    <rect id="Rectangle_41" data-name="Rectangle 41" class="cls-4" width="94.902" height="75.818" transform="translate(594.135 3757.39)"/>
    <rect id="Rectangle_42" data-name="Rectangle 42" class="cls-2" width="94.902" height="75.818" transform="translate(690.068 3757.39)"/>
    <rect id="Rectangle_43" data-name="Rectangle 43" class="cls-5" width="94.902" height="75.818" transform="translate(786.002 3757.39)"/>
    <rect id="Rectangle_44" data-name="Rectangle 44" class="cls-2" width="94.902" height="75.818" transform="translate(881.935 3757.39)"/>
    <rect id="Rectangle_45" data-name="Rectangle 45" class="cls-2" width="94.902" height="75.818" transform="translate(977.868 3757.39)"/>
    <rect id="Rectangle_46" data-name="Rectangle 46" class="cls-4" width="94.902" height="75.818" transform="translate(1073.801 3757.39)"/>
    <rect id="Rectangle_47" data-name="Rectangle 47" class="cls-2" width="94.902" height="75.818" transform="translate(1169.735 3757.39)"/>
    <rect id="Rectangle_48" data-name="Rectangle 48" class="cls-5" width="94.902" height="75.818" transform="translate(1265.668 3757.39)"/>
    <rect id="Rectangle_49" data-name="Rectangle 49" class="cls-5" width="94.902" height="75.818" transform="translate(594.135 3834.755)"/>
    <rect id="Rectangle_50" data-name="Rectangle 50" class="cls-5" width="94.902" height="75.818" transform="translate(690.068 3834.755)"/>
    <rect id="Rectangle_51" data-name="Rectangle 51" class="cls-2" width="94.902" height="75.818" transform="translate(786.002 3834.755)"/>
    <rect id="Rectangle_52" data-name="Rectangle 52" class="cls-4" width="94.902" height="75.818" transform="translate(881.935 3834.755)"/>
    <rect id="Rectangle_53" data-name="Rectangle 53" class="cls-2" width="94.902" height="75.818" transform="translate(977.868 3834.755)"/>
    <rect id="Rectangle_54" data-name="Rectangle 54" class="cls-5" width="94.902" height="75.818" transform="translate(1073.801 3834.755)"/>
    <rect id="Rectangle_55" data-name="Rectangle 55" class="cls-4" width="94.902" height="75.818" transform="translate(1169.735 3834.755)"/>
    <rect id="Rectangle_56" data-name="Rectangle 56" class="cls-2" width="94.902" height="75.818" transform="translate(1265.668 3834.755)"/>
    <rect id="Rectangle_57" data-name="Rectangle 57" class="cls-2" width="94.902" height="75.818" transform="translate(594.135 3911.089)"/>
    <rect id="Rectangle_58" data-name="Rectangle 58" class="cls-2" width="94.902" height="75.818" transform="translate(690.068 3911.089)"/>
    <rect id="Rectangle_59" data-name="Rectangle 59" class="cls-5" width="94.902" height="75.818" transform="translate(786.002 3911.089)"/>
    <rect id="Rectangle_60" data-name="Rectangle 60" class="cls-2" width="94.902" height="75.818" transform="translate(881.935 3911.089)"/>
    <rect id="Rectangle_61" data-name="Rectangle 61" class="cls-5" width="94.902" height="75.818" transform="translate(977.868 3911.089)"/>
    <rect id="Rectangle_62" data-name="Rectangle 62" class="cls-2" width="94.902" height="75.818" transform="translate(1073.801 3911.089)"/>
    <rect id="Rectangle_63" data-name="Rectangle 63" class="cls-2" width="94.902" height="75.818" transform="translate(1169.735 3911.089)"/>
    <rect id="Rectangle_64" data-name="Rectangle 64" class="cls-5" width="94.902" height="75.818" transform="translate(1265.668 3911.089)"/>
    <rect id="Rectangle_65" data-name="Rectangle 65" class="cls-2" width="94.902" height="75.818" transform="translate(594.135 3987.423)"/>
    <rect id="Rectangle_66" data-name="Rectangle 66" class="cls-4" width="94.902" height="75.818" transform="translate(690.068 3987.423)"/>
    <rect id="Rectangle_67" data-name="Rectangle 67" class="cls-4" width="94.902" height="75.818" transform="translate(786.002 3987.423)"/>
    <rect id="Rectangle_68" data-name="Rectangle 68" class="cls-2" width="94.902" height="75.818" transform="translate(881.935 3987.423)"/>
    <rect id="Rectangle_69" data-name="Rectangle 69" class="cls-2" width="94.902" height="75.818" transform="translate(977.868 3987.423)"/>
    <rect id="Rectangle_70" data-name="Rectangle 70" class="cls-4" width="94.902" height="75.818" transform="translate(1073.801 3987.423)"/>
    <rect id="Rectangle_71" data-name="Rectangle 71" class="cls-2" width="94.902" height="75.818" transform="translate(1169.735 3987.423)"/>
    <rect id="Rectangle_72" data-name="Rectangle 72" class="cls-4" width="94.902" height="75.818" transform="translate(1265.668 3987.423)"/>
    <rect id="Rectangle_73" data-name="Rectangle 73" class="cls-4" width="94.902" height="75.818" transform="translate(594.135 4064.789)"/>
    <rect id="Rectangle_74" data-name="Rectangle 74" class="cls-5" width="94.902" height="75.818" transform="translate(690.068 4064.789)"/>
    <rect id="Rectangle_75" data-name="Rectangle 75" class="cls-2" width="94.902" height="75.818" transform="translate(786.002 4064.789)"/>
    <rect id="Rectangle_76" data-name="Rectangle 76" class="cls-4" width="94.902" height="75.818" transform="translate(881.935 4064.789)"/>
    <rect id="Rectangle_77" data-name="Rectangle 77" class="cls-5" width="94.902" height="75.818" transform="translate(977.868 4064.789)"/>
    <rect id="Rectangle_78" data-name="Rectangle 78" class="cls-2" width="94.902" height="75.818" transform="translate(1073.801 4064.789)"/>
    <rect id="Rectangle_79" data-name="Rectangle 79" class="cls-5" width="94.902" height="75.818" transform="translate(1169.735 4064.789)"/>
    <rect id="Rectangle_80" data-name="Rectangle 80" class="cls-2" width="94.902" height="75.818" transform="translate(1265.668 4064.789)"/>
    <rect id="Rectangle_81" data-name="Rectangle 81" class="cls-6" width="28.883" height="28.883" transform="translate(601.872 3918.31)"/>
    <rect id="Rectangle_82" data-name="Rectangle 82" class="cls-6" width="28.883" height="28.883" transform="translate(888.64 3765.642)"/>
    <rect id="Rectangle_83" data-name="Rectangle 83" class="cls-6" width="28.883" height="28.883" transform="translate(885.545 3918.31)"/>
    <rect id="Rectangle_84" data-name="Rectangle 84" class="cls-6" width="28.883" height="28.883" transform="translate(983.542 3991.55)"/>
    <rect id="Rectangle_85" data-name="Rectangle 85" class="cls-6" width="28.883" height="28.883" transform="translate(1174.377 3918.31)"/>
    <ellipse id="Ellipse_40" data-name="Ellipse 40" class="cls-1" cx="176.961" cy="176.961" rx="176.961" ry="176.961" transform="translate(529.035 3979.12)"/>
    <circle id="Ellipse_41" data-name="Ellipse 41" class="cls-3" cx="172.185" cy="172.185" r="172.185" transform="translate(533.811 3983.896)"/>
    <circle id="Ellipse_42" data-name="Ellipse 42" class="cls-2" cx="139.897" cy="139.897" r="139.897" transform="translate(566.098 4016.183)"/>
    <circle id="Ellipse_43" data-name="Ellipse 43" class="cls-7" cx="8.366" cy="8.366" r="8.366" transform="translate(697.63 4147.714)"/>
    <line id="Ligne_4" data-name="Ligne 4" class="cls-3" x1="45.439" y2="107.61" transform="translate(707.192 4048.47)"/>
    <path id="Tracé_312" data-name="Tracé 312" class="cls-1" d="M174.768,492.875l-5.158-1.733L216.029,382.5l5.158,2.424Z" transform="translate(534.384 3664.237)"/>
    <rect id="Rectangle_86" data-name="Rectangle 86" class="cls-8" width="116.812" height="3.59" transform="matrix(0.389, -0.921, 0.921, 0.389, 705.526, 4155.348)"/>
    <line id="Ligne_5" data-name="Ligne 5" class="cls-3" x2="29.894" y2="55.002" transform="translate(707.192 4157.277)"/>
    <path id="Tracé_313" data-name="Tracé 313" class="cls-1" d="M200.525,546.266l-29.915-55.7,4.126-2.063,30.946,54.672Z" transform="translate(534.416 3667.58)"/>
    <rect id="Rectangle_87" data-name="Rectangle 87" class="cls-8" width="3.59" height="62.604" transform="translate(705.601 4158.166) rotate(-28.52)"/>
    <circle id="Ellipse_44" data-name="Ellipse 44" class="cls-3" cx="3.59" cy="3.59" r="3.59" transform="translate(832.741 4156.08)"/>
    <circle id="Ellipse_45" data-name="Ellipse 45" class="cls-9" cx="4.663" cy="4.663" r="4.663" transform="translate(587.362 4093.332) rotate(-60)"/>
    <circle id="Ellipse_46" data-name="Ellipse 46" class="cls-10" cx="4.663" cy="4.663" r="4.663" transform="translate(588.554 4222.642) rotate(-30)"/>
    <circle id="Ellipse_47" data-name="Ellipse 47" class="cls-11" cx="4.663" cy="4.663" r="4.663" transform="translate(571.008 4155.007)"/>
    <circle id="Ellipse_48" data-name="Ellipse 48" class="cls-12" cx="4.663" cy="4.663" r="4.663" transform="translate(634.943 4042.095) rotate(-30)"/>
    <circle id="Ellipse_49" data-name="Ellipse 49" class="cls-13" cx="4.663" cy="4.663" r="4.663" transform="translate(699.512 4025.362) rotate(-30)"/>
    <circle id="Ellipse_50" data-name="Ellipse 50" class="cls-14" cx="4.663" cy="4.663" r="4.663" transform="translate(764.08 4042.1) rotate(-30)"/>
    <circle id="Ellipse_51" data-name="Ellipse 51" class="cls-15" cx="4.663" cy="4.663" r="4.663" transform="translate(811.906 4089.931) rotate(-30)"/>
    <circle id="Ellipse_52" data-name="Ellipse 52" class="cls-16" cx="4.663" cy="4.663" r="4.663" transform="translate(810.715 4222.652) rotate(-30)"/>
    <circle id="Ellipse_53" data-name="Ellipse 53" class="cls-17" cx="4.663" cy="4.663" r="4.663" transform="translate(761.687 4269.281) rotate(-30)"/>
    <circle id="Ellipse_54" data-name="Ellipse 54" class="cls-18" cx="4.663" cy="4.663" r="4.663" transform="translate(699.507 4283.637) rotate(-30)"/>
    <circle id="Ellipse_55" data-name="Ellipse 55" class="cls-19" cx="4.663" cy="4.663" r="4.663" transform="translate(637.335 4269.286) rotate(-30)"/>
    <circle id="Ellipse_56" data-name="Ellipse 56" class="cls-6" cx="3.59" cy="3.59" r="3.59" transform="translate(702.406 4023.352)"/>
    <circle id="Ellipse_57" data-name="Ellipse 57" class="cls-6" cx="3.59" cy="3.59" r="3.59" transform="translate(765.663 4045.552) rotate(-60)"/>
    <circle id="Ellipse_58" data-name="Ellipse 58" class="cls-6" cx="3.59" cy="3.59" r="3.59" transform="translate(812.926 4090.201) rotate(-30)"/>
    <circle id="Ellipse_59" data-name="Ellipse 59" class="cls-6" cx="3.59" cy="3.59" r="3.59" transform="translate(812.179 4225.659) rotate(-60)"/>
    <circle id="Ellipse_60" data-name="Ellipse 60" class="cls-6" cx="3.59" cy="3.59" r="3.59" transform="translate(763.153 4269.428) rotate(-30)"/>
    <circle id="Ellipse_61" data-name="Ellipse 61" class="cls-6" cx="3.59" cy="3.59" r="3.59" transform="translate(636.522 4042.939) rotate(-30)"/>
    <circle id="Ellipse_62" data-name="Ellipse 62" class="cls-6" cx="3.59" cy="3.59" r="3.59" transform="translate(589.266 4092.827) rotate(-60)"/>
    <circle id="Ellipse_63" data-name="Ellipse 63" class="cls-6" cx="4.663" cy="4.663" r="4.663" transform="translate(829.85 4158.088) rotate(-30)"/>
    <circle id="Ellipse_64" data-name="Ellipse 64" class="cls-6" cx="3.59" cy="3.59" r="3.59" transform="translate(590.02 4223.034) rotate(-30)"/>
    <circle id="Ellipse_65" data-name="Ellipse 65" class="cls-6" cx="3.59" cy="3.59" r="3.59" transform="translate(639.035 4272.056) rotate(-60)"/>
    <circle id="Ellipse_66" data-name="Ellipse 66" class="cls-6" cx="3.59" cy="3.59" r="3.59" transform="translate(572.081 4156.08)"/>
    <circle id="Ellipse_67" data-name="Ellipse 67" class="cls-6" cx="3.59" cy="3.59" r="3.59" transform="translate(702.406 4281.619)"/>
    <path id="Tracé_314" data-name="Tracé 314" class="cls-5" d="M225.3,625.935a139.918,139.918,0,0,1,261.269-69.608A139.918,139.918,0,1,0,236.646,681.2,139.424,139.424,0,0,1,225.3,625.935Z" transform="translate(347.978 3543.298)"/>
    <circle id="Ellipse_68" data-name="Ellipse 68" class="cls-6" cx="5.983" cy="5.983" r="5.983" transform="translate(700.012 4150.097)"/>
  </g>
</svg>
