<svg xmlns="http://www.w3.org/2000/svg" xmlns:xlink="http://www.w3.org/1999/xlink" viewBox="0 0 766.965 571.625">
  <defs>
    <style>
      .cls-1, .cls-9 {
        fill: #6c63ff;
      }

      .cls-1, .cls-15, .cls-6 {
        opacity: 0.1;
      }

      .cls-2 {
        fill: #65617d;
      }

      .cls-3 {
        fill: url(#linear-gradient);
      }

      .cls-4 {
        fill: #ee8e9e;
      }

      .cls-5 {
        fill: #dfe5ee;
      }

      .cls-7 {
        fill: #d48a9b;
      }

      .cls-8 {
        fill: #efc6cd;
      }

      .cls-10, .cls-15 {
        fill: #fff;
      }

      .cls-11 {
        fill: #ffd037;
      }

      .cls-12 {
        fill: #9d9cb5;
      }

      .cls-13 {
        fill: #603556;
      }

      .cls-14 {
        fill: #5c5c8e;
      }

      .cls-16 {
        fill: #efc8c4;
      }

      .cls-17 {
        fill: #727a9c;
      }
    </style>
    <linearGradient id="linear-gradient" x1="0.5" y1="1" x2="0.5" gradientUnits="objectBoundingBox">
      <stop offset="0" stop-color="gray" stop-opacity="0.251"/>
      <stop offset="0.54" stop-color="gray" stop-opacity="0.122"/>
      <stop offset="1" stop-color="gray" stop-opacity="0.102"/>
    </linearGradient>
  </defs>
  <g id="undraw_studying_s3l7" transform="translate(-1059.035 -1524.961)">
    <path id="Tracé_315" data-name="Tracé 315" class="cls-1" d="M824.851,326.081c-.138.811-.275,1.622-.427,2.433-4.91,27.619-12.926,54.247-24.846,78.694q-.587,1.217-1.195,2.433a224.906,224.906,0,0,1-28,43.174c-5.938,7.162-12.412,13.962-20.11,18.872-10.79,6.88-23.4,9.675-35.8,11.963-12.883,2.382-25.932,4.345-38.953,6.517q-6.923,1.13-13.759,2.368c-12.579,2.274-25.063,4.9-37.251,8.386-15.07,4.345-29.691,9.943-43.45,17.872q-1.651.941-3.266,1.933c-1.079.652-2.172,1.318-3.223,2s-2.107,1.354-3.15,2.042l-1.608,1.086c-.529.348-1.05.724-1.571,1.072-1.55,1.057-3.078,2.172-4.606,3.244l-.058.043q-1.51,1.086-3.005,2.172c-5.641,4.178-11.159,8.552-16.656,12.941l-3.469,2.773q-2.687,2.129-5.373,4.251c-1.05.833-2.115,1.658-3.172,2.484-.768.6-1.528,1.2-2.31,1.8-3.918,3.02-7.886,5.974-11.934,8.8-.963.673-1.941,1.347-2.9,2.006a152.729,152.729,0,0,1-25.737,14.179l-.116.051a102.108,102.108,0,0,1-13.672,4.714,81.837,81.837,0,0,1-8.053,1.745,71.171,71.171,0,0,1-21.833.377c-14.259-2.02-27.619-8.69-41.842-10.92-29.343-4.555-57.839,10.138-85.451,21.674q-10.138,4.244-20.5,7.966-6.865,2.477-13.8,4.714a434.339,434.339,0,0,1-86.559,18.517,200.015,200.015,0,0,1-36.751.992,124.1,124.1,0,0,1-13.759-1.789c-15.475-2.9-29.922-9.045-41.56-20.276-9.668-9.19-16.489-21.2-21.689-33.739q-3.136-7.553-5.525-15.454A172.347,172.347,0,0,1,72.3,534.965c-.282-1.926-.536-3.86-.724-5.793q-.565-4.975-.84-9.993a173.074,173.074,0,0,1,5.149-52.864c4.932-19.111,13.158-37.41,16.779-56.7.152-.811.29-1.622.427-2.433q.724-4.345,1.1-8.849c1.825-23.593-5.236-46.687-10.812-69.816-.2-.811-.391-1.622-.579-2.433q-.905-3.845-1.716-7.7c-5.163-24.462-6.575-50.64-1.991-75.052.145-.811.311-1.629.478-2.433a121.4,121.4,0,0,1,16.916-42.313c8.581-13.151,19.849-24.093,31.863-33.71q8.8-7.024,18.2-13.144,6.756-4.388,13.759-8.306c37.721-21,80.758-31.262,123.31-28.966q3.382.174,6.749.463,3.534.3,7.046.724c27.395,3.165,54.051,11.007,80.548,19.589q13.317,4.345,26.591,8.69,5.909,1.926,11.811,3.8c19.3,6.09,38.916,11.587,58.715,15.729q6.887,1.448,13.759,2.643a325.2,325.2,0,0,0,48.222,4.968q9.414.232,18.828-.2,4.758-.217,9.523-.637c32.812-2.81,64.45-12.231,96.219-21.08,4.591-1.282,9.19-2.556,13.759-3.787,6.039-1.622,12.086-3.194,18.155-4.642,37.787-9.074,71.46-3.86,106.589,14.853,7.966,4.251,15.932,9.378,20.856,17.315s6.119,17.764,7.032,27.221c1.289,13.455,2.172,27.1,2.455,40.8,0,.811,0,1.622.051,2.433A434.084,434.084,0,0,1,824.851,326.081Z" transform="translate(988.582 1453.396)"/>
    <path id="Tracé_316" data-name="Tracé 316" class="cls-1" d="M577.506,407.318h-2.469v2.433h2.8Zm-27.989,0a.16.16,0,0,0,0,.058l-.217,2.013v.362h21.435v-.145l1.528-2.288Zm-57.317,0V328.623h24.621c-.261-.217-.529-.434-.8-.637l-.362-.275c-.152-.123-.3-.239-.464-.348s-.536-.384-.818-.572-.456-.311-.724-.463l-.167-.109H492.2V321.91l-.572.275-.608.34h-.043l-.13.08-.377.246c-.13.08-.261.159-.384.246-.377.254-.724.529-1.122.811l-.362.29c-.246.188-.478.384-.724.579-.963.789-1.912,1.615-2.9,2.375-.246.2-.492.384-.724.565a18.712,18.712,0,0,1-1.637,1.072,7.792,7.792,0,0,1-.724.4l-.405.188-.369.159h0a15.382,15.382,0,0,1-2.694.855v76.928H441.494a1.113,1.113,0,0,0,.072.253c.2.724.406,1.448.6,2.172h36.266V494.1H479l.645.043,1.173.087,1.9.188.855.1.941.116h.138c.543.072,1.094.159,1.651.246l.355.058.8.13,1.144.2h0l2.745-.145h0l.377.08a2.2,2.2,0,0,1,.463.094V409.751h57.071v-.362l.217-2.013a.161.161,0,0,1,0-.058Zm85.306,0h-2.469v2.433h2.8Zm-29.531,0-.246,2.433h23.847l1.622-2.433Zm-55.76,0V328.623h24.621c-.261-.217-.529-.434-.8-.637l-.362-.275c-.152-.123-.3-.239-.463-.348s-.536-.384-.818-.572-.456-.311-.724-.463l-.167-.109H492.2V321.91l-.572.275-.608.34h-.043l-.13.08-.377.246c-.13.08-.261.159-.384.246-.377.254-.724.529-1.122.811l-.362.29c-.246.188-.478.384-.724.579-.963.789-1.912,1.615-2.9,2.375-.246.2-.492.384-.724.565a18.712,18.712,0,0,1-1.637,1.072,7.792,7.792,0,0,1-.724.4l-.405.188-.369.159h0a15.382,15.382,0,0,1-2.694.855v76.928H441.494a1.113,1.113,0,0,0,.072.253c.2.724.413,1.448.608,2.172h36.259v84.35l.565.036.645.043,1.173.087,1.9.188.855.1.941.116h.138c.543.072,1.094.159,1.651.246l.355.058.8.13,1.144.2h0l2.745-.145h0l.377.08a2.2,2.2,0,0,1,.463.094V409.751h55.55l.261-2.433ZM678.8,243.44H833.938c0-.811,0-1.622-.051-2.433H678.8V145.462c-4.606,1.231-9.2,2.506-13.759,3.787v91.758H496.313l-.427-.463.645-.724h0l62.756-68.875q-9.414.435-18.828.2L492.2,224.076V166.194q-6.908-1.195-13.759-2.643v57.86l-70.555-77.391c-8.856-2.9-17.713-5.844-26.591-8.69l95.9,105.213-.427.463H300.747V115.728q-3.519-.4-7.046-.724-3.367-.3-6.749-.463V241.007H163.641V143.535q-7.017,3.91-13.759,8.306v89.166H82.818c-.167.8-.333,1.622-.478,2.433h67.484v82.75H86.077c.188.811.384,1.622.579,2.433h63.2v78.694H96.345c-.138.811-.275,1.622-.427,2.433h53.935V629.787a124.14,124.14,0,0,0,13.759,1.789V409.751H286.951V612.067q6.937-2.252,13.8-4.714v-197.6H478.412V586.518a102.108,102.108,0,0,0,13.672-4.714l.116-.051v-172H665v82.895q6.872-1.238,13.759-2.368V409.751H801.626q.608-1.217,1.195-2.433H678.8V328.623H827.71c.152-.811.29-1.622.427-2.433H678.8Zm-515.153,0h123.3v82.75H163.641Zm0,163.877V328.623h123.3v78.694ZM300.754,243.44H478.412v82.75H300.747Zm0,163.877V328.623H478.412v78.694Zm364.252,0H492.2V328.623H665Zm0-81.106H492.2V245.656l2.426-2.216H665ZM549.524,407.318a.16.16,0,0,0,0,.058l-.217,2.013v.362h21.435v-.145l1.528-2.288Zm27.989,0h-2.469v2.433h2.8Zm-85.306,0V328.623h24.621c-.261-.217-.529-.434-.8-.637l-.362-.275c-.152-.123-.3-.239-.464-.348s-.536-.384-.818-.572-.456-.311-.724-.463l-.167-.109H492.2V321.91l-.572.275-.608.34h-.043l-.13.08-.377.246c-.13.08-.261.159-.384.246-.377.254-.724.529-1.122.811l-.362.29c-.246.188-.478.384-.724.579-.963.789-1.912,1.615-2.9,2.375-.246.2-.492.384-.724.565a18.712,18.712,0,0,1-1.637,1.072,7.792,7.792,0,0,1-.724.4l-.405.188-.369.159h0a15.382,15.382,0,0,1-2.694.855v76.928H441.494a1.113,1.113,0,0,0,.072.253c.2.724.406,1.448.6,2.172h36.266V494.1H479l.645.043,1.173.087,1.9.188.855.1.941.116h.138c.543.072,1.094.159,1.651.246l.355.058.8.13,1.144.2h0l2.745-.145h0l.377.08a2.2,2.2,0,0,1,.463.094V409.751h57.071v-.362l.217-2.013a.161.161,0,0,1,0-.058Z" transform="translate(985.303 1453.286)"/>
    <path id="Tracé_317" data-name="Tracé 317" class="cls-1" d="M274.742,211.891h1.1a2.636,2.636,0,0,1-1.311-2.122h0c0-1.68,2.057-3.049,4.569-3.049h31.972c2.513,0,4.569,1.369,4.569,3.049h0c0,1.673-2.057,3.049-4.569,3.049h-1.065a2.643,2.643,0,0,1,1.3,2.122c0,1.448-1.492,2.636-3.49,2.962h9.2c2.506,0,4.562,1.369,4.562,3.049s-2.057,3.041-4.562,3.041H285.018c-2.506,0-4.562-1.369-4.562-3.041,0-1.448,1.492-2.636,3.49-2.962h-9.2c-2.506,0-4.562-1.369-4.562-3.049S272.222,211.891,274.742,211.891Z" transform="translate(933.489 1427.859)"/>
    <path id="Tracé_318" data-name="Tracé 318" class="cls-1" d="M753.262,251.96h1.072a2.643,2.643,0,0,1-1.311-2.129h0c0-1.673,2.057-3.041,4.569-3.041h31.972c2.513,0,4.57,1.369,4.57,3.041h0c0,1.68-2.057,3.049-4.57,3.049H788.5a2.65,2.65,0,0,1,1.3,2.129c0,1.448-1.492,2.629-3.49,2.955h9.2c2.506,0,4.562,1.376,4.562,3.049s-2.057,3.049-4.562,3.049H763.553c-2.506,0-4.562-1.369-4.562-3.049,0-1.448,1.492-2.636,3.491-2.955h-9.219c-2.506,0-4.562-1.376-4.562-3.049S750.771,251.96,753.262,251.96Z" transform="translate(801.494 1416.806)"/>
    <path id="Tracé_319" data-name="Tracé 319" class="cls-1" d="M207.012,423.428h1.072a2.65,2.65,0,0,1-1.3-2.129h0c0-1.673,2.049-3.049,4.562-3.049h31.972c2.513,0,4.569,1.376,4.569,3.049h0c0,1.68-2.057,3.049-4.569,3.049H242.25a2.65,2.65,0,0,1,1.3,2.129c0,1.448-1.492,2.629-3.49,2.955h9.2c2.513,0,4.562,1.369,4.562,3.049s-2.049,3.049-4.562,3.049H217.288c-2.506,0-4.562-1.376-4.562-3.049,0-1.448,1.5-2.636,3.49-2.962h-9.2c-2.506,0-4.562-1.369-4.562-3.041S204.507,423.428,207.012,423.428Z" transform="translate(952.172 1369.511)"/>
    <path id="Tracé_320" data-name="Tracé 320" class="cls-2" d="M699.728,713.44q-2.687,2.129-5.373,4.251c-1.05.833-2.115,1.658-3.172,2.484-.768.6-1.528,1.2-2.31,1.8-3.918,3.02-7.886,5.974-11.934,8.8-.963.673-1.941,1.347-2.9,2.006a152.725,152.725,0,0,1-25.737,14.179l-.116.051V713.44Z" transform="translate(829.219 1288.086)"/>
    <path id="Tracé_321" data-name="Tracé 321" class="cls-3" d="M704.665,464.062l.811-25.02c-.485-.377-.978-.724-1.448-1.072a133.379,133.379,0,0,0-1.275-22.311c-3.273-25.02-24.527-25.563-30.523-20.4a14.485,14.485,0,0,1-2.585,1.781c.543-3.57,1.217-7.147,1.7-10.681,2.621-19.06-1.448-40.5-16.236-52.82-6.192-5.149-13.759-8.313-20.559-12.622-12.18-7.683-21.8-19.031-34.122-26.511s-29.618-10.283-40.365-.666c-4.164,3.722-6.851,8.885-11.123,12.477-7.966,6.691-20.385,7.133-27.337,14.606h0c-.348.377-.681.76-1,1.166-5.793,7.43-4.207,17.966-2.361,27.185,2.223,11.094,1.3,19.987,10.819,23.173.036.442.065.883.116,1.318A47.005,47.005,0,0,0,549.861,407.5l-1.542.55c-4.113,1.448-7.814,2.853-10.182,3.816-8.69,3.541-26.982,8.154-26.982,8.154s-.435,5.214-.355,12.9c-6.1,6.626-16.272,18.271-19.263,25.172-4.345,10.066-28.894,38.895-35.433,43.247s-13.629,9.516-13.629,9.516-10.356,5.714-15.258,6.257c-3.4.377-13.9-1.637-13.9-1.637s-41.965-51.415-39.242-11.963,36.244,40.792,36.244,40.792l33.8-.543s18.263,2.448,26.439-4.345c6.981-5.793,43.16-37.577,54.783-51.995.268.3.536.587.818.869,0,0,4.627-5.982,5.178,0s-3.005,8.69-1.094,10.862,7.633,9.791,7.9,12.781-7.625,15.207,5.721,24.477c.21.145.435.282.681.42,2.382,5.424,9.957,10.732,9.957,10.732l40.879-.543L672.505,553s2.3-2.02,5.4-5.323c4.149,3.809,9.906,7.075,16.4,5.069,0,0,9.269-11.145,9.544-18.488,0,0-6-15.5-8.69-20.124s1.912-14.686,1.912-14.686,3.266-9.791,5.178-9.791.543-6.517.543-6.517a7.922,7.922,0,0,1-.818-7.343C703.572,471.68,704.665,464.062,704.665,464.062Z" transform="translate(904.867 1405.55)"/>
    <path id="Tracé_322" data-name="Tracé 322" class="cls-4" d="M735.151,496.608l-2.9,3.389h0l-11.7,13.629-15.287.927L680.8,516.059S647.8,476.3,654,467.649c2.252-3.121,2.621-7.242,2.172-11.13-.058-.536-.138-1.072-.232-1.6a46.27,46.27,0,0,0-3.853-11.876l.811-.369.521-.239,28.85-13.165,7.14-3.259a19.274,19.274,0,0,0,1.955,5.634c.138.275.29.55.449.811,9.841,16.294,41.4,5.989,41.4,5.989Z" transform="translate(828.143 1367.37)"/>
    <path id="Tracé_323" data-name="Tracé 323" class="cls-4" d="M806.565,478.789c-.217,9.863-1.825,14.121-1.825,14.121L763.9,499.131l-1.528-10.6-6.047-41.864,5.677-5.677a15.157,15.157,0,0,0,12.984-3.244c5.945-5.142,27.04-4.6,30.284,20.276a137.7,137.7,0,0,1,1.289,20.769Z" transform="translate(799.39 1364.848)"/>
    <path id="Tracé_324" data-name="Tracé 324" class="cls-5" d="M803.592,638.754s9.19-11.087,9.465-18.386l-9.2-15.417-8.111-8.69L780.6,625.5S790.608,642.809,803.592,638.754Z" transform="translate(792.695 1320.408)"/>
    <path id="Tracé_325" data-name="Tracé 325" class="cls-6" d="M803.592,638.754s9.19-11.087,9.465-18.386l-9.2-15.417-8.111-8.69L780.6,625.5S790.608,642.809,803.592,638.754Z" transform="translate(792.695 1320.408)"/>
    <path id="Tracé_326" data-name="Tracé 326" class="cls-7" d="M532.247,712.953c-.768.6-1.528,1.2-2.31,1.8-3.918,3.02-7.886,5.974-11.934,8.8-.963.673-1.941,1.347-2.9,2.006H284.1l-68.346-2.448-54.964-.464-13.759-.724L78.38,718.3a172.349,172.349,0,0,1-5.656-25.244c-.282-1.926-.536-3.86-.724-5.793l75,4.157,13.759.775,123.31,6.88,13.8.768,177.665,9.921,13.672.768h.116Z" transform="translate(988.155 1295.307)"/>
    <path id="Tracé_327" data-name="Tracé 327" class="cls-8" d="M624.576,641.459c-15.07,4.345-29.69,9.943-43.45,17.872-1.094.63-2.172,1.275-3.266,1.933s-2.172,1.318-3.223,2-2.107,1.354-3.15,2.042l-1.608,1.086-1.571,1.072c-1.55,1.065-3.078,2.172-4.606,3.244l-.058.043q-1.51,1.086-3.005,2.172c-5.641,4.178-11.159,8.552-16.656,12.941q-1.738,1.39-3.483,2.774l-5.359,4.251c-1.05.833-2.115,1.658-3.172,2.484-.768.6-1.528,1.2-2.31,1.8l-40.553-1.933h-.116l-13.672-.637-177.745-8.422-13.8-.659-123.31-5.858L146.71,679,72.4,675.5c-.282-1.926-.536-3.86-.724-5.793q-.565-4.975-.84-9.993L146.7,632.921l13.759-4.874,12.5-4.417,22.775,1.188,52.639,2.7h0L283.8,629.38l13.8.724,8.813.463h0l2.107.116h0l74.168,3.874h0l.782.051h0l33.094,1.723h.594l3.309.167h0l11.282.594,14.107.724h0l4.649.246h0l.876.051,6.575.34h0l1.876.094h0l6.278.333h0l2.5.138h.6l5.873.311,9.1.478h.043l2.824.145h.3l1.687.094,4.142.217h0l3.621.188h.036l4.063.21h.065l3.078.167h0l2.361.123,8.379.442h0l1.506.08h.521l.724.043h0l2.455.13h0l1.1.058h0l8.545.442h.782l12.615-.109h.087l47.961-.391h4.743l15.439-.123h2.3Z" transform="translate(988.475 1312.859)"/>
    <path id="Tracé_328" data-name="Tracé 328" class="cls-9" d="M388.06,646.531l4.461,23.731L513.8,668.436s9.124,2.636,8.922-4.664c0,0,18.459-17.445,111.955,2.839l-35.9-28.192-98.124,5.272L386.88,640.65Z" transform="translate(901.299 1308.779)"/>
    <path id="Tracé_329" data-name="Tracé 329" class="cls-10" d="M391.59,641.282l4.258,25.758s104.279-3.041,120.674-.2l-12.39-23.528S441.079,637.429,391.59,641.282Z" transform="translate(900 1308.351)"/>
    <path id="Tracé_330" data-name="Tracé 330" class="cls-6" d="M391.59,641.282l4.258,25.758s104.279-3.041,120.674-.2l-12.39-23.528S441.079,637.429,391.59,641.282Z" transform="translate(900 1308.351)"/>
    <path id="Tracé_331" data-name="Tracé 331" class="cls-10" d="M393.74,641.187l4.2,23.955s102.954-2.824,119.175-.188L504.9,643.077S442.606,637.6,393.74,641.187Z" transform="translate(899.407 1308.352)"/>
    <path id="Tracé_332" data-name="Tracé 332" class="cls-6" d="M396.35,642.231l4.091,22.406s100.694-2.643,116.59-.174l-11.949-20.472S444.152,638.849,396.35,642.231Z" transform="translate(898.687 1308.046)"/>
    <path id="Tracé_333" data-name="Tracé 333" class="cls-10" d="M397.47,641.107l4.113,22.449s100.695-2.643,116.59-.174L506.2,642.889S445.272,637.754,397.47,641.107Z" transform="translate(898.378 1308.351)"/>
    <path id="Tracé_334" data-name="Tracé 334" class="cls-9" d="M293.57,557.41s5.272,6.887-2.426,17.293-14.056,19.183-11.485,25.671c0,0,11.587-19.321,21.073-19.552S303.976,569.026,293.57,557.41Z" transform="translate(931.035 1331.125)"/>
    <path id="Tracé_335" data-name="Tracé 335" class="cls-6" d="M293.684,557.41a8.37,8.37,0,0,1,1.079,2.173c9.226,10.862,14.143,21,5.272,21.218-8.263.232-18.169,15-20.544,18.741q.123.42.282.847s11.587-19.321,21.073-19.552S304.09,569.026,293.684,557.41Z" transform="translate(930.921 1331.125)"/>
    <path id="Tracé_336" data-name="Tracé 336" class="cls-11" d="M312.157,568.948c0,2.419-.275,4.388-.608,4.388s-.608-1.97-.608-4.388.34-1.289.673-1.289S312.157,566.522,312.157,568.948Z" transform="translate(922.246 1328.371)"/>
    <path id="Tracé_337" data-name="Tracé 337" class="cls-11" d="M315.678,572.894c-2.129,1.166-3.983,1.868-4.142,1.571s1.448-1.448,3.563-2.636,1.289-.319,1.448,0S317.807,571.735,315.678,572.894Z" transform="translate(922.085 1327.315)"/>
    <path id="Tracé_338" data-name="Tracé 338" class="cls-9" d="M256.155,557.41s-5.272,6.887,2.433,17.293,14.049,19.183,11.485,25.671c0,0-11.623-19.321-21.08-19.552S245.749,569.026,256.155,557.41Z" transform="translate(940.62 1331.125)"/>
    <path id="Tracé_339" data-name="Tracé 339" class="cls-6" d="M256.155,557.41a8.691,8.691,0,0,0-1.079,2.173c-9.226,10.862-14.143,21-5.272,21.218,8.263.232,18.176,15,20.552,18.741a8.714,8.714,0,0,1-.282.847s-11.623-19.321-21.08-19.552S245.749,569.026,256.155,557.41Z" transform="translate(940.62 1331.125)"/>
    <path id="Tracé_340" data-name="Tracé 340" class="cls-11" d="M247.13,568.948c0,2.419.275,4.388.608,4.388s.608-1.97.608-4.388-.34-1.289-.673-1.289S247.13,566.522,247.13,568.948Z" transform="translate(939.847 1328.371)"/>
    <path id="Tracé_341" data-name="Tracé 341" class="cls-11" d="M242,572.894c2.129,1.166,3.99,1.868,4.149,1.571s-1.448-1.448-3.563-2.636-1.289-.319-1.448,0S239.869,571.735,242,572.894Z" transform="translate(941.619 1327.315)"/>
    <path id="Tracé_342" data-name="Tracé 342" class="cls-2" d="M297.4,602.685l-.261,2.172-.369,3.034-.152,1.267-.369,3.042-.159,1.267-.377,3.042L291.5,651.066c-.377,3.085-5.417,5.489-11.5,5.489H258.117c-6.083,0-11.116-2.4-11.492-5.489L242.4,616.51l-.369-3.042-.152-1.267-.377-3.042-.152-1.267-.369-3.034-.268-2.172c-.21-1.745,2.513-3.215,5.96-3.215h44.8C294.912,599.47,297.642,600.94,297.4,602.685Z" transform="translate(941.62 1319.523)"/>
    <path id="Tracé_343" data-name="Tracé 343" class="cls-12" d="M226.83,551.59l-.369,3.041H171.019l-.369-3.041Z" transform="translate(1011.954 1372.769)"/>
    <path id="Tracé_344" data-name="Tracé 344" class="cls-12" d="M226.507,557.54l-.369,3.042H171.747l-.377-3.042Z" transform="translate(1011.755 1371.128)"/>
    <path id="Tracé_345" data-name="Tracé 345" class="cls-12" d="M226.18,563.49l-.369,3.034H172.469l-.369-3.034Z" transform="translate(1011.554 1369.487)"/>
    <path id="Tracé_346" data-name="Tracé 346" class="cls-4" d="M406.134,598.158s-14.063-13.52-13.52,4.055S406.134,598.158,406.134,598.158Z" transform="translate(899.721 1321.255)"/>
    <path id="Tracé_347" data-name="Tracé 347" class="cls-4" d="M527.123,537.106c-.311,1.361-1.825,3.621-4.186,6.452-12.195,14.686-46.889,45.209-53.689,50.872-8.111,6.764-26.229,4.345-26.229,4.345l-33.529.543s-33.261-1.354-35.969-40.553,38.938,11.9,38.938,11.9,10.428,2,13.8,1.622c4.866-.536,15.142-6.213,15.142-6.213s7.032-5.141,13.52-9.465,30.827-32.993,35.158-43c2.745-6.351,11.587-16.735,17.691-23.47,3.5-3.874,6.1-6.517,6.1-6.517S529.013,528.721,527.123,537.106Z" transform="translate(905.018 1351.479)"/>
    <path id="Tracé_348" data-name="Tracé 348" class="cls-6" d="M578.307,537.1c-.311,1.361-1.825,3.621-4.186,6.452C561.81,531.012,559.24,506,558.95,490.1c3.5-3.874,6.1-6.517,6.1-6.517S580.2,528.71,578.307,537.1Z" transform="translate(853.835 1351.49)"/>
    <path id="Tracé_349" data-name="Tracé 349" class="cls-6" d="M732.247,506.254h0l-11.7,13.629-15.287.927L680.8,522.315S647.8,482.559,654,473.905c2.252-3.121,2.621-7.242,2.172-11.13-.058-.536-.138-1.072-.232-1.6A46.27,46.27,0,0,0,652.09,449.3l.811-.369.521-.239a51.928,51.928,0,0,1,2.651,11.087c.08.514.152,1.05.224,1.6.253,1.955.485,4.128.724,6.517,1.883,21.884,15.649,30.118,21.862,32.739a63.041,63.041,0,0,1,5.851,2.831,31.219,31.219,0,0,0,19.625,3.548C719.7,505,732.2,493.856,732.2,493.856l.065,10.971Z" transform="translate(828.143 1361.114)"/>
    <path id="Tracé_350" data-name="Tracé 350" class="cls-5" d="M707.563,589.984s-100.593-.275-113.852-9.465-5.4-21.363-5.677-24.339-5.945-10.544-7.835-12.716,1.622-4.866,1.079-10.812-5.134,0-5.134,0c-18.937-19.2-14.882-67.876-14.882-67.876s18.1-4.591,26.794-8.118c2.354-.956,6.018-2.317,10.138-3.787l1.528-.55c10.623-3.8,23.253-8.1,23.253-8.1s2.426-1.716,4.866,3.418c1.115,2.361,2.238,6.163,3.136,12.238.08.514.152,1.05.225,1.6.253,1.955.485,4.128.724,6.517,1.883,21.884,15.649,30.118,21.862,32.739a63.048,63.048,0,0,1,5.851,2.831,31.218,31.218,0,0,0,19.625,3.548c15.338-2.013,27.844-13.158,27.844-13.158l.065,10.971.188,32.964Z" transform="translate(853.298 1362.422)"/>
    <path id="Tracé_351" data-name="Tracé 351" class="cls-4" d="M715.719,585.19,714.1,595.466s-40.024,10-55.7,12.977-49.489-.811-51.922,5.677,10.276,15.417,10.276,15.417l40.553-.543,76.529,5.953s29.205-25.693,19.741-43.544S715.719,585.19,715.719,585.19Z" transform="translate(840.812 1324.49)"/>
    <path id="Tracé_352" data-name="Tracé 352" class="cls-6" d="M637.724,474.58s-18.394,15.142-14.874,22.449S637.724,474.58,637.724,474.58Z" transform="translate(836.332 1353.973)"/>
    <path id="Tracé_353" data-name="Tracé 353" class="cls-6" d="M605.478,512.29S586.816,544.472,587.9,546.9s6.221,11.087,5.945,4.6S605.478,512.29,605.478,512.29Z" transform="translate(845.861 1343.571)"/>
    <path id="Tracé_354" data-name="Tracé 354" class="cls-6" d="M619.02,520.14s-4.345,20.009-8.654,28.394S619.02,520.14,619.02,520.14Z" transform="translate(839.894 1341.406)"/>
    <path id="Tracé_355" data-name="Tracé 355" class="cls-6" d="M680.883,432.485a46.781,46.781,0,0,1-35.556,24.057h-.087a46.7,46.7,0,0,1-32.92-8.617c10.862-3.925,24.781-8.646,24.781-8.646s2.426-1.716,4.866,3.418l36.512-16.656A19.36,19.36,0,0,0,680.883,432.485Z" transform="translate(839.113 1367.362)"/>
    <path id="Tracé_356" data-name="Tracé 356" class="cls-4" d="M679.241,383.952a46.57,46.57,0,0,1-6.156,23.217,47.115,47.115,0,0,1-6.974,9.284,46.584,46.584,0,0,1-28.358,14.02h-.094a45.667,45.667,0,0,1-5.2.3,46.781,46.781,0,0,1-46.484-41.51,45.417,45.417,0,0,1-.3-5.278,46.781,46.781,0,0,1,93.562,0Z" transform="translate(846.462 1391.868)"/>
    <path id="Tracé_357" data-name="Tracé 357" class="cls-6" d="M755.485,515.3l4.345-6.518s23.8-28.394,47.07-10.276l-.811,24.882s-1.086,7.568-2.708,11.587a7.915,7.915,0,0,0,.811,7.307s1.354,6.517-.536,6.517-5.141,9.733-5.141,9.733-4.6,10.008-1.89,14.606,8.654,20.009,8.654,20.009-9.465-5.677-12.173-15.142c0,0-22.985-17.851-40.835-6.517Z" transform="translate(800.51 1349.04)"/>
    <path id="Tracé_358" data-name="Tracé 358" class="cls-6" d="M808.868,493.506c-.217,9.863-1.825,14.121-1.825,14.121l-40.835,6.22-1.528-10.6C770.024,497.67,789.461,479.942,808.868,493.506Z" transform="translate(797.086 1350.131)"/>
    <path id="Tracé_359" data-name="Tracé 359" class="cls-5" d="M755.485,513.3l4.345-6.517s23.8-28.394,47.07-10.276l-.811,24.882s-1.086,7.568-2.708,11.587a7.915,7.915,0,0,0,.811,7.307s1.354,6.517-.536,6.517-5.141,9.733-5.141,9.733-4.6,10.008-1.89,14.606,8.654,20.009,8.654,20.009-9.465-5.677-12.173-15.142c0,0-22.985-17.851-40.835-6.517Z" transform="translate(800.51 1349.591)"/>
    <path id="Tracé_360" data-name="Tracé 360" class="cls-6" d="M795.491,496.61s-39.206,24.071-37.316,45.18C758.175,541.79,780.081,503.1,795.491,496.61Z" transform="translate(798.899 1347.896)"/>
    <path id="Tracé_361" data-name="Tracé 361" class="cls-6" d="M713.891,475.5l.188,32.964c-7.415.333-14.4-.63-19.929-5.431-3.845-3.346-6.083-7.966-7.242-12.963a45.918,45.918,0,0,1-.941-12.26.658.658,0,0,1,0-.123c.456-9.1,2.549-18.205,1.448-27.25s-6.583-18.589-15.533-20.494c-1.767-.384-3.751-.521-5.011-1.818-1.39-1.448-1.325-3.7-1.173-5.706l.261-3.382c.065-.869.094-1.731.094-2.592A33.188,33.188,0,0,0,639.259,383.9l-.29-.051c-2.52-.507-5.141-1.007-7.662-.427-4.794,1.108-7.893,5.757-12.311,7.966-8.473,4.229-22.6-.4-31.472-1.854-.579-.094-1.13-.2-1.658-.326a45.422,45.422,0,0,1-.3-5.279,46.781,46.781,0,1,1,87.406,23.217c.138.275.29.55.449.811,9.841,16.294,41.4,5.989,41.4,5.989l1.9,58.143Z" transform="translate(846.492 1391.877)"/>
    <path id="Tracé_362" data-name="Tracé 362" class="cls-13" d="M616.091,377.823c4.388-2.216,7.488-6.865,12.311-7.966,2.513-.579,5.134-.08,7.669.42l.29.058a33.217,33.217,0,0,1,26.671,35.143l-.261,3.382c-.159,2-.225,4.265,1.18,5.7,1.253,1.3,3.237,1.448,5,1.81,8.951,1.912,14.433,11.406,15.533,20.5s-1.028,18.227-1.448,27.366,1.26,19.226,8.169,25.23c10.862,9.414,27.373,4.055,41.748,3.194-6.358,0-11.123-6.561-11.471-12.9s2.477-12.383,5.178-18.1,5.409-11.876,4.808-18.205c-.826-8.69-7.676-15.649-10.3-24.013-3.056-9.733-.109-20.182,1.275-30.3,2.6-18.944-1.448-40.271-16.112-52.516-6.141-5.12-13.65-8.27-20.4-12.557-12.094-7.669-21.631-18.915-33.855-26.374s-29.386-10.225-40.053-.666c-4.128,3.7-6.793,8.835-11.036,12.4-8.292,6.988-21.471,7.118-28.119,15.693-5.721,7.379-4.171,17.858-2.339,27.018,2.44,12.217,1.064,21.725,14.121,23.9C593.49,377.432,607.611,382.06,616.091,377.823Z" transform="translate(851.101 1404.637)"/>
    <path id="Tracé_363" data-name="Tracé 363" class="cls-6" d="M723.636,499.386c-10.464,1.282-20.834,1.941-28.452-4.664-6.909-6-8.61-16.084-8.169-25.23s2.556-18.285,1.448-27.373-6.583-18.582-15.533-20.494c-1.767-.377-3.744-.514-5-1.81-1.4-1.448-1.34-3.708-1.181-5.706l.261-3.382a33.21,33.21,0,0,0-26.671-35.136l-.29-.058c-2.535-.5-5.156-1-7.669-.42-4.794,1.108-7.893,5.793-12.311,7.966-8.48,4.236-22.594-.391-31.479-1.847-13.035-2.136-11.673-11.659-14.121-23.9-1.369-6.836-2.578-14.411-.724-20.885a11.381,11.381,0,0,0-1,1.166c-5.721,7.379-4.171,17.858-2.339,27.018,2.44,12.217,1.064,21.725,14.121,23.9,8.878,1.448,23,6.083,31.479,1.847,4.388-2.216,7.488-6.865,12.311-7.966,2.513-.579,5.134-.08,7.669.42l.29.058a33.217,33.217,0,0,1,26.671,35.143l-.261,3.382c-.159,2-.224,4.265,1.18,5.7,1.253,1.3,3.237,1.448,5,1.81,8.951,1.912,14.433,11.406,15.533,20.5s-1.021,18.227-1.448,27.366,1.26,19.226,8.169,25.23c10.862,9.414,27.373,4.055,41.748,3.194C728.966,505.237,725.685,502.761,723.636,499.386Z" transform="translate(851.136 1392.075)"/>
    <path id="Tracé_364" data-name="Tracé 364" class="cls-14" d="M374.287,588.363l44.644-16.656A4.251,4.251,0,0,1,424.4,574.2h0a4.251,4.251,0,0,1-2.491,5.467l-44.644,16.656-9.573-.956Z" transform="translate(906.592 1327.255)"/>
    <path id="Tracé_365" data-name="Tracé 365" class="cls-15" d="M423.041,573.091h0a4.251,4.251,0,0,1-2.5,5.467l-44.673,16.714-7.184-.724-1.036,1.1,9.573.956,44.644-16.656a4.251,4.251,0,0,0,2.491-5.467h0a4.251,4.251,0,0,0-1.738-2.122,4.931,4.931,0,0,1,.42.731Z" transform="translate(906.603 1327.001)"/>
    <path id="Tracé_366" data-name="Tracé 366" class="cls-16" d="M303.857,539.52l2.969,7.959-7.85-.789-1.716-.174,2.346-2.491Z" transform="translate(977.029 1376.099)"/>
    <path id="Tracé_367" data-name="Tracé 367" class="cls-17" d="M370.045,601a1.9,1.9,0,0,1,.463.5.724.724,0,0,1,0,.775,1.542,1.542,0,0,1-.427.311,1.448,1.448,0,0,0-.637,1.072l-1.724-.167Z" transform="translate(906.584 1319.101)"/>
    <path id="Tracé_368" data-name="Tracé 368" class="cls-10" d="M570.056,655.117s38.67-8.118,103.555,2.173l-25.418-18.654-46.245-9.465-32.718,8.69Z" transform="translate(850.999 1311.331)"/>
    <path id="Tracé_369" data-name="Tracé 369" class="cls-6" d="M570.056,655.117s38.67-8.118,103.555,2.173l-25.418-18.654-46.245-9.465-32.718,8.69Z" transform="translate(850.999 1311.331)"/>
    <path id="Tracé_370" data-name="Tracé 370" class="cls-10" d="M559.41,664.741s19.473-52.675,119.486.167l-35.9-23.1s-85.994-23.76-95.929,3.621Z" transform="translate(857.112 1310.483)"/>
    <path id="Tracé_371" data-name="Tracé 371" class="cls-6" d="M559.39,663.248s19.473-56.318,119.486,1.014l-35.9-25.056S556.957,610.79,547,640.531Z" transform="translate(857.131 1311.94)"/>
    <path id="Tracé_372" data-name="Tracé 372" class="cls-10" d="M559.41,663.187s19.473-57.151,119.486.181L643,638.313s-85.994-27.6-95.929,2.172Z" transform="translate(857.112 1312.022)"/>
    <path id="Tracé_373" data-name="Tracé 373" class="cls-6" d="M559.4,662.317s19.473-63.516,119.486.978L642.959,635.1s-85.994-28.966-95.929,4.461Z" transform="translate(857.123 1312.907)"/>
    <path id="Tracé_374" data-name="Tracé 374" class="cls-10" d="M559.4,661.972s19.473-64.291,119.486.2l-35.925-28.192s-85.994-28.966-95.929,4.461Z" transform="translate(857.123 1313.216)"/>
    <path id="Tracé_375" data-name="Tracé 375" class="cls-1" d="M974.1,668.71s-24.006,25.715-2.4,38.207c0,0,2.824,3.4,6.858,1.622,0,0-1.361-1.209,1.369-3.541a16.19,16.19,0,0,0,2.571-2.824,7.964,7.964,0,0,0,1.492-4.823h0s3.143-10.2-6.843-23.448c0,0-.905-4.432-1.673-4.917l-1.825,6.177s4.584,1.166,6.307,4.656c0,0-6.04-4.743-6.626-3.751-.116.2-.818,3.324-.818,3.324s7.966,2.057,10.457,7.531c0,0-6.438-6.612-10.732-6.351l-.782,4.765s8.523,1.767,11.586,7.893c0,0-6.966-6.684-11.7-6.836l-.137,4.787s8.277,1.883,10.8,7c0,0-8.828-6.9-10.761-5.895,0,0,.137,4.41.724,5.562,0,0,5.909,1.448,7.111,4.591,0,0-6.387-3.99-6.937-3.382,0,0,1.716,5.692,4.106,8.118a18.013,18.013,0,0,1-4.982-7.806,9.935,9.935,0,0,0-1.2,5.554s-2.368-2.621.8-6.937c0,0-1.159-4.49-.869-5.2,0,0-3.729,3.816-4.685,7.242,0,0-.724-4.287,4.678-8.48V686.72s-5.2,4.787-6.271,7.749c0,0-.073-4.49,6.38-8.958l.724-4.685s-4.794,3.78-6.7,6.822c0,0,.826-4.186,6.952-8.154l.847-3.07s-3.447,2.824-4.345,3.722-1.238.724-1.238.724a15.207,15.207,0,0,1,5.938-5.75S974.5,668.877,974.1,668.71Z" transform="translate(742.469 1300.424)"/>
    <path id="Tracé_376" data-name="Tracé 376" class="cls-1" d="M1118.639,90.91s-32.073,14.483-16.953,34.318c0,0,1.3,4.236,5.7,4.149,0,0-.789-1.644,2.629-2.745a15.862,15.862,0,0,0,3.462-1.615,7.967,7.967,0,0,0,3.237-3.874h0s6.836-8.2,2.73-24.267c0,0,.876-4.439.355-5.185l-4.07,5s3.78,2.839,4.026,6.727c0,0-3.737-6.706-4.663-6.011-.188.138-2.035,2.745-2.035,2.745s6.518,4.968,6.742,10.986c0,0-3.389-8.589-7.459-10.008l-2.556,4.1s7.184,4.917,7.662,11.753c0,0-3.853-8.849-8.161-10.819l-1.977,4.345s6.916,4.932,7.241,10.623c0,0-5.482-9.776-7.654-9.588,0,0-1.571,4.113-1.448,5.409,0,0,4.881,3.621,4.794,6.981,0,0-4.345-6.141-5.069-5.793,0,0-.616,5.909.659,9.074a17.977,17.977,0,0,1-1.586-9.124,9.91,9.91,0,0,0-3.251,4.664s-1.173-3.338,3.418-6.1c0,0,.659-4.584,1.2-5.127,0,0-4.917,2.078-7.1,4.845,0,0,.978-4.236,7.589-6.018l1.883-4.432s-6.641,2.4-8.777,4.722c0,0,1.666-4.171,9.342-5.793l2.47-4.041s-5.88,1.644-8.813,3.708c0,0,2.383-3.534,9.566-4.837l1.962-2.506s-4.273,1.275-5.467,1.752-1.448.2-1.448.2a15.207,15.207,0,0,1,7.741-3.013S1118.9,91.2,1118.639,90.91Z" transform="translate(705.244 1459.804)"/>
    <path id="Tracé_377" data-name="Tracé 377" class="cls-1" d="M694.392,103.29s-48.186,13.759-24.759,34.238c0,0,2.078,4.345,8.748,4.345,0,0-1.246-1.68,3.911-2.7a30.632,30.632,0,0,0,5.2-1.535,9.276,9.276,0,0,0,4.794-3.831h0s10.138-8.111,3.483-24.462c0,0,1.209-4.461.4-5.228l-6.025,4.939s5.793,2.976,6.278,6.908c0,0-5.844-6.872-7.242-6.2-.282.138-3.012,2.716-3.012,2.716s10.051,5.2,10.508,11.29c0,0-5.359-8.77-11.587-10.312l-3.766,4.07s11.007,5.163,11.912,12.086c0,0-6.068-9.045-12.644-11.152l-2.9,4.345s10.6,5.171,11.3,10.935c0,0-8.567-10.03-11.854-9.906,0,0-2.267,4.128-2.064,5.438,0,0,7.488,3.824,7.452,7.184,0,0-6.764-6.329-7.879-6,0,0-.768,5.96,1.246,9.19,0,0-3.49-4.642-2.65-9.262,0,0-3.831,1.919-4.794,4.62,0,0-1.868-3.4,5.011-6.061,0,0,.876-4.62,1.68-5.156,0,0-7.386,1.97-10.623,4.707,0,0,1.361-4.258,11.326-5.88l2.737-4.432s-9.993,2.259-13.165,4.54c0,0,2.411-4.171,14-5.619l3.621-4.019s-8.864,1.5-13.252,3.512c0,0,3.512-3.512,14.353-4.635l2.9-2.477s-6.438,1.173-8.234,1.622-2.173.159-2.173.159a28.525,28.525,0,0,1,11.587-2.839S694.812,103.594,694.392,103.29Z" transform="translate(825.076 1456.39)"/>
    <path id="Tracé_378" data-name="Tracé 378" class="cls-1" d="M898.727,829.332s24.259-25.483,2.773-38.185c0,0-2.8-3.432-6.843-1.695,0,0,1.354,1.224-1.4,3.534a16.347,16.347,0,0,0-2.6,2.8,7.915,7.915,0,0,0-1.535,4.808h0s-3.251,10.174,6.612,23.513c0,0,.862,4.439,1.622,4.939l1.89-6.163s-4.577-1.209-6.264-4.714c0,0,5.989,4.794,6.583,3.809.123-.2.854-3.309.854-3.309s-7.966-2.172-10.385-7.633c0,0,6.373,6.677,10.674,6.452l.826-4.758s-8.5-1.847-11.521-7.966c0,0,6.9,6.749,11.637,6.952l.181-4.794s-8.263-2-10.768-7.14c0,0,8.762,7,10.7,6,0,0-.094-4.4-.724-5.562,0,0-5.895-1.55-7.068-4.664,0,0,6.351,4.055,6.9,3.447,0,0-1.658-5.706-4.026-8.154a18.008,18.008,0,0,1,4.91,7.85,9.9,9.9,0,0,0,1.253-5.54s2.346,2.65-.869,6.93c0,0,1.115,4.5.818,5.207,0,0,3.766-3.78,4.75-7.162,0,0,.724,4.294-4.758,8.429l-.072,4.823s5.243-4.736,6.344-7.691c0,0,0,4.5-6.467,8.9l-.724,4.678s4.83-3.737,6.764-6.756c0,0-.869,4.171-7.032,8.082l-.876,3.063s3.476-2.788,4.4-3.679,1.245-.724,1.245-.724a15.157,15.157,0,0,1-6,5.692S898.365,829.159,898.727,829.332Z" transform="translate(762.901 1267.254)"/>
    <path id="Tracé_379" data-name="Tracé 379" class="cls-1" d="M575.85,56.2s4.135,34.933,27.627,26.5c0,0,4.425.036,5.67-4.193,0,0-1.81.261-1.825-3.331a16.222,16.222,0,0,0-.5-3.787,7.908,7.908,0,0,0-2.715-4.251h0s-5.765-8.994-22.355-9.878c0,0-3.968-2.172-4.837-1.9l3.541,5.381s3.845-2.752,7.625-1.81c0,0-7.517,1.55-7.133,2.636.072.224,2,2.766,2,2.766s6.771-4.779,12.564-3.15c0,0-9.2.637-11.782,4.091l3.092,3.679s6.851-5.373,13.52-3.773c0,0-9.6,1.014-12.782,4.526l3.606,3.2s6.778-5.113,12.311-3.737c0,0-10.978,2.288-11.456,4.41,0,0,3.454,2.737,4.729,3.027,0,0,4.953-3.556,8.1-2.469,0,0-7.169,2.3-7.061,3.114,0,0,5.453,2.361,8.849,2.1a18.377,18.377,0,0,1-9.175-1.231,9.931,9.931,0,0,0,3.469,4.5s-3.534.109-4.787-5.069c0,0-4.171-2.013-4.526-2.687,0,0,.507,5.308,2.484,8.226,0,0-3.751-2.172-3.462-9.045l-3.621-3.136s.3,7.061,1.861,9.8c0,0-3.476-2.846-2.723-10.66l-3.107-3.57s-.21,6.1.876,9.515c0,0-2.658-3.331-1.731-10.573l-1.8-2.629s-.065,4.454,0,5.743-.246,1.412-.246,1.412a15.207,15.207,0,0,1-.565-8.277S576.212,56.03,575.85,56.2Z" transform="translate(849.173 1469.614)"/>
    <path id="Tracé_380" data-name="Tracé 380" class="cls-1" d="M804.82,734.636s-33.905-9.414-34.991,15.526c0,0-1.709,4.084,1.731,6.836,0,0,.442-1.767,3.773-.427a16.214,16.214,0,0,0,3.693.978,7.914,7.914,0,0,0,4.968-.912h0s10.5-1.926,17.626-16.9c0,0,3.512-2.846,3.621-3.758l-6.322,1.238s1.086,4.606-1.216,7.749c0,0,1.448-7.546.268-7.6-.239,0-3.324.8-3.324.8s1.854,8.009-1.847,12.752c0,0,2.9-8.762.674-12.456l-4.591,1.513s2.375,8.371-1.636,13.933c0,0,2.708-9.262.652-13.535l-4.3,2.093s2.173,8.212-1.209,12.818c0,0,2.042-11.022.253-12.275,0,0-3.838,2.172-4.584,3.23,0,0,1.448,5.931-.782,8.429,0,0,.579-7.509-.21-7.712,0,0-4.258,4.149-5.3,7.394a18,18,0,0,1,4.62-8.024,9.945,9.945,0,0,0-5.482,1.5s1.231-3.309,6.517-2.491c0,0,3.447-3.107,4.207-3.172,0,0-5.069-1.55-8.56-.826,0,0,3.462-2.636,9.682.232l4.287-2.172s-6.648-2.4-9.769-1.984c0,0,3.947-2.173,10.862,1.513L792.6,737.4s-5.562-2.5-9.139-2.788c0,0,4.091-1.195,10.442,2.4l3.114-.673s-4.1-1.752-5.323-2.172-1.217-.724-1.217-.724a15.208,15.208,0,0,1,7.843,2.607S804.841,735.035,804.82,734.636Z" transform="translate(795.783 1282.719)"/>
  </g>
</svg>
